<?xml version="1.0" encoding="utf-8"?>
<!-- Generator: Adobe Illustrator 16.0.4, SVG Export Plug-In . SVG Version: 6.00 Build 0)  -->
<!DOCTYPE svg PUBLIC "-//W3C//DTD SVG 1.1//EN" "http://www.w3.org/Graphics/SVG/1.1/DTD/svg11.dtd">
<svg version="1.1" id="Layer_1" xmlns="http://www.w3.org/2000/svg" xmlns:xlink="http://www.w3.org/1999/xlink" x="0px" y="0px"
	 width="24px" height="24px" viewBox="0 0 24 24" enable-background="new 0 0 24 24" xml:space="preserve">
<path fill="#231F20" d="M11.277,3.014c0-0.506,0.409-0.915,0.913-0.915c0.506,0,0.916,0.409,0.916,0.915
	c0,0.505-0.409,0.915-0.916,0.915C11.686,3.929,11.277,3.519,11.277,3.014 M23.999,11.306c0.056,1.935-1.594,3.16-2.22,3.614
	c-0.626,0.457-2.007,1.153-2.007,1.153s1.751,0.555,1.751,1.949c0,0,0.469-0.071,0.469,0.385c0,0.455-0.445,0.436-0.445,0.436v0.542
	c0,0-1.851-2.358-9.547-2.358c-7.695,0-9.362,2.549-9.362,2.549v-0.737c0,0-0.582,0.028-0.567-0.465
	c0.014-0.493,0.567-0.342,0.567-0.342v-0.553c0,0,0.346-0.895,1.829-1.314c0,0-2.652-1.13-3.45-2.325
	c-0.796-1.195-1.565-2.76-0.484-3.685c1.082-0.925,2.861-1.068,5.607,1.38c0,0-0.27-3.914,2.418-3.871c0,0,1.693-0.328,3.487,3.415
	c0,0,1.295-3.088,2.689-3.259s1.906,0.071,2.327,0.883c0.419,0.811,0.447,2.233,0.277,3.557c0,0,2.049-2.177,3.457-2.476
	C22.206,9.485,23.942,9.372,23.999,11.306 M5.093,15.866c0,0,1.678-0.555,2.311-0.515c0,0-1.254-2.351-1.096-2.905
	c0,0-1.281-1.492-2.352-1.941c-1.069-0.449-2.152-0.634-2.799,0.211c-0.647,0.845,0.317,2.548,1.043,3.195
	C2.927,14.559,3.271,14.929,5.093,15.866 M11.617,13.066c0.105-0.475-0.634-2.389-0.964-3.077C10.322,9.303,9.57,8.115,8.54,8.207
	C7.51,8.3,7.021,9.554,7.073,10.862c0.053,1.307,0.247,1.901,0.247,1.901s0.917,1.149,1.22,2.417c0,0,2.417-0.291,2.945-0.225
	C11.484,14.955,11.511,13.542,11.617,13.066 M12.435,14.941c0,0,3.038,0.027,3.196,0.238c0,0,0.568-1.862,1.215-2.377
	c0,0,0.396-2.654-0.118-3.394c-0.515-0.739-1.717-1.558-2.997,0.343C12.449,11.654,12.435,14.941,12.435,14.941 M19.352,15.934
	c1.535-0.503,3.202-2.172,3.619-2.761c0.419-0.594,0.558-1.176,0.359-1.941c-0.198-0.766-1.333-0.991-2.906-0.397
	c-1.57,0.595-3.234,2.284-3.234,2.284c0.04,0.674-0.621,2.166-0.621,2.166c0.885-0.013,2.747,0.661,2.747,0.661
	C19.327,15.941,19.34,15.938,19.352,15.934 M21.533,5.913c-0.665-0.834-1.168-1.622-4.25-0.967c0,0-2.534,0.673-3.283,0.426
	c-0.749-0.246-1.527-1.095-1.527-1.095s0.36,1.788,0.133,2.148c0,0-0.168,0.388-0.433,0.457c-0.133-0.05-1.011-0.464-0.326-2.604
	c0,0-1.031,1.166-1.936,1.208C9.007,5.529,6.496,4.811,5.806,4.747c-0.69-0.064-2.383-0.121-3.046,1.01
	C2.099,6.888,2.682,8.283,2.796,8.481c0.115,0.199,0.107,0.363,1.089,0.804c0.981,0.441,1.508,0.918,1.564,0.989
	c0.058,0.071-0.298-1.829,0.975-2.704c1.274-0.876,2.554-0.989,3.394-0.377c0.775,0.564,2.022,2.392,2.211,2.672l0.016,0.06
	c0,0,0.004-0.009,0.01-0.021v0c0.109-0.215,1.088-2.135,1.612-2.444c0,0,1.546-1.31,3.396-0.267c1.85,1.043,1.31,3.321,1.29,3.396
	s1.461-1.452,2.913-1.717C21.268,8.873,22.197,6.748,21.533,5.913 M10.171,13.626c0-0.198-0.161-0.358-0.359-0.358
	s-0.359,0.16-0.359,0.358c0,0.199,0.161,0.359,0.359,0.359S10.171,13.825,10.171,13.626 M6.453,14.884
	c0-0.198-0.161-0.359-0.359-0.359s-0.359,0.161-0.359,0.359s0.161,0.358,0.359,0.358S6.453,15.082,6.453,14.884 M14.905,13.626
	c0-0.198-0.16-0.358-0.358-0.358c-0.199,0-0.359,0.16-0.359,0.358c0,0.199,0.16,0.359,0.359,0.359
	C14.745,13.985,14.905,13.825,14.905,13.626 M18.634,14.884c0-0.198-0.161-0.359-0.358-0.359c-0.199,0-0.358,0.161-0.358,0.359
	s0.159,0.358,0.358,0.358C18.473,15.242,18.634,15.082,18.634,14.884 M15.392,11.946c0-0.269-0.218-0.486-0.486-0.486
	s-0.485,0.217-0.485,0.486s0.217,0.486,0.485,0.486S15.392,12.215,15.392,11.946 M19.98,13.615c0-0.268-0.218-0.485-0.486-0.485
	s-0.485,0.218-0.485,0.485c0,0.269,0.217,0.486,0.485,0.486S19.98,13.884,19.98,13.615 M9.888,11.946
	c0-0.269-0.217-0.486-0.486-0.486c-0.267,0-0.485,0.217-0.485,0.486s0.218,0.486,0.485,0.486C9.67,12.432,9.888,12.215,9.888,11.946
	 M5.172,13.753c0-0.269-0.218-0.485-0.486-0.485c-0.268,0-0.485,0.217-0.485,0.485s0.218,0.486,0.485,0.486
	C4.955,14.239,5.172,14.021,5.172,13.753 M4.339,12.161c0-0.355-0.408-0.643-0.911-0.643c-0.504,0-0.913,0.288-0.913,0.643
	s0.409,0.643,0.913,0.643C3.931,12.804,4.339,12.516,4.339,12.161 M9.828,10.139c0-0.354-0.407-0.643-0.911-0.643
	s-0.912,0.288-0.912,0.643c0,0.355,0.408,0.643,0.912,0.643S9.828,10.494,9.828,10.139 M16.243,10.139
	c0-0.354-0.407-0.643-0.911-0.643s-0.912,0.288-0.912,0.643c0,0.355,0.408,0.643,0.912,0.643S16.243,10.494,16.243,10.139
	 M22.113,12.168c0-0.354-0.407-0.643-0.911-0.643s-0.912,0.288-0.912,0.643c0,0.355,0.408,0.643,0.912,0.643
	S22.113,12.523,22.113,12.168 M19.802,18.72c1.061,0.548,1.244,0.783,1.273,1.117c0.028,0.334-1.217,1.032-2.085,1.259
	c-0.868,0.229-2.675,0.605-3.878,0.705s-2.611,0.092-3.586,0.1c-0.974,0.007-3.6-0.149-4.931-0.456
	c-1.33-0.306-3.416-0.896-3.501-1.664c0,0,0.193-1.273,4.263-1.85c4.07-0.577,6.916-0.3,7.364-0.228
	C15.169,17.774,18.741,18.172,19.802,18.72 M19.068,20.307c0.804-0.348,0.704-0.59,0.541-0.847
	c-0.164-0.256-0.889-0.483-2.014-0.762c-1.125-0.277-4.34-0.554-4.604-0.554c-0.263,0-1.715-0.114-5.237,0.312
	c-3.521,0.427-3.18,1.323-3.18,1.323c0.17,0.477,0.897,0.69,0.897,0.69c0.717,0.391,2.198,0.512,3.678,0.689
	c1.48,0.178,3.957,0.129,5.657,0.057C16.508,21.146,18.265,20.655,19.068,20.307"/>
<g>
</g>
<g>
</g>
<g>
</g>
<g>
</g>
<g>
</g>
<g>
</g>
<g>
</g>
<g>
</g>
<g>
</g>
<g>
</g>
<g>
</g>
<g>
</g>
<g>
</g>
<g>
</g>
<g>
</g>
</svg>
