<?xml version="1.0" encoding="utf-8"?>
<!-- Generator: Adobe Illustrator 16.0.4, SVG Export Plug-In . SVG Version: 6.00 Build 0)  -->
<!DOCTYPE svg PUBLIC "-//W3C//DTD SVG 1.1//EN" "http://www.w3.org/Graphics/SVG/1.1/DTD/svg11.dtd">
<svg version="1.1" id="Capa_1" xmlns="http://www.w3.org/2000/svg" xmlns:xlink="http://www.w3.org/1999/xlink" x="0px" y="0px"
	 width="24px" height="24px" viewBox="0 0 24 24" enable-background="new 0 0 24 24" xml:space="preserve">
<g>
	<path d="M2.924,23.914v-8.193c-0.048-0.037-0.091-0.076-0.139-0.119c-0.476-0.433-0.845-0.928-1.109-1.47v9.782H2.924z
		 M17.536,7.801c-0.035,0-0.062,0-0.099,0c-0.015,0-0.033,0-0.047,0H6.749c-0.029,0-0.062,0-0.091,0c-0.048,0-0.097,0-0.144,0
		c-2.646,0-4.791,1.944-4.796,4.344c0,0.006,0,0.006,0,0.01c0,1.109,0.456,2.117,1.205,2.886c0.878,0.896,2.16,1.469,3.585,1.469
		c1.315,0,2.568-0.504,3.461-1.378c0.451-0.439,0.801-0.965,1.037-1.525c0.201-0.479,0.614-0.713,1.027-0.713
		c0.402,0,0.802,0.226,1.003,0.66c0.26,0.559,0.601,1.092,1.037,1.541c0.883,0.912,2.116,1.422,3.454,1.422l0,0
		c2.649,0,4.796-1.947,4.796-4.354C22.325,9.75,20.182,7.801,17.536,7.801z M8.353,8.372c0.485,0,0.485,0.749,0,0.749
		S7.868,8.372,8.353,8.372z M5.981,8.425c0.485,0,0.485,0.749,0,0.749C5.497,9.174,5.497,8.425,5.981,8.425z M2.91,12.25
		c-0.048,0.023-0.104,0.043-0.179,0.043c-0.301,0-0.412-0.288-0.34-0.509c0.043-0.134,0.158-0.24,0.34-0.24
		C3.149,11.545,3.208,12.098,2.91,12.25z M3.51,14.562c-0.485,0-0.485-0.748,0-0.748C3.995,13.814,3.989,14.562,3.51,14.562z
		 M3.783,10.172c-0.485,0-0.485-0.749,0-0.749C4.268,9.423,4.269,10.172,3.783,10.172z M5.53,15.863c-0.484,0-0.484-0.747,0-0.747
		C6.014,15.116,6.015,15.863,5.53,15.863z M8.08,15.74c-0.485,0-0.485-0.749,0-0.749C8.56,14.991,8.56,15.74,8.08,15.74z
		 M7.028,12.673c-0.989,0-1.873-0.446-2.459-1.151c0.586-0.707,1.47-1.151,2.459-1.151c0.988,0,1.871,0.444,2.457,1.151
		C8.896,12.227,8.017,12.673,7.028,12.673z M9.649,14.367c-0.485,0-0.485-0.749,0-0.749S10.134,14.367,9.649,14.367z M10.676,9.121
		c-0.485,0-0.485-0.749,0-0.749C11.161,8.372,11.155,9.121,10.676,9.121z M18.077,8.425c0.485,0,0.485,0.749,0,0.749
		C17.593,9.174,17.593,8.425,18.077,8.425z M15.706,8.372c0.485,0,0.485,0.749,0,0.749C15.223,9.121,15.223,8.372,15.706,8.372z
		 M13.384,9.121c-0.483,0-0.483-0.749,0-0.749C13.868,8.372,13.868,9.121,13.384,9.121z M14.404,14.367
		c-0.483,0-0.483-0.749,0-0.749C14.889,13.618,14.891,14.367,14.404,14.367z M15.979,15.74c-0.482,0-0.482-0.749,0-0.749
		C16.466,14.991,16.466,15.74,15.979,15.74z M18.523,15.863c-0.483,0-0.483-0.747,0-0.747
		C19.008,15.116,19.009,15.863,18.523,15.863z M17.032,12.673c-0.99,0-1.873-0.446-2.459-1.151c0.586-0.707,1.469-1.151,2.459-1.151
		c0.987,0,1.87,0.444,2.457,1.151C18.898,12.227,18.016,12.673,17.032,12.673z M20.275,9.423c0.483,0,0.483,0.749,0,0.749
		S19.792,9.423,20.275,9.423z M20.55,14.562c-0.483,0-0.483-0.748,0-0.748C21.034,13.814,21.029,14.562,20.55,14.562z
		 M21.323,12.294c-0.486,0-0.486-0.749,0-0.749C21.809,11.545,21.809,12.294,21.323,12.294z M4.36,4.662
		c0.433,0,0.783,0.352,0.783,0.783c0,0.431-0.35,0.781-0.783,0.781c-0.432,0-0.781-0.351-0.781-0.781
		C3.579,5.012,3.929,4.662,4.36,4.662z M17.382,4.993c0.433,0,0.783,0.351,0.783,0.782c0,0.433-0.353,0.783-0.783,0.783
		S16.6,6.207,16.6,5.775S16.95,4.993,17.382,4.993z M16.523,19.917c0.537,0,0.976,0.437,0.976,0.976
		c0,0.537-0.438,0.976-0.976,0.976c-0.539,0-0.976-0.438-0.976-0.976C15.549,20.354,15.984,19.917,16.523,19.917z M8.881,2.652
		l1.171-1.172l1.172,1.172l-1.172,1.171L8.881,2.652z M7.028,20.833l0.869,0.869L7.028,22.57L6.16,21.702L7.028,20.833z
		 M12.397,16.484l1.221,1.222l-1.221,1.222l-1.224-1.222L12.397,16.484z"/>
</g>
</svg>
