<?xml version="1.0" encoding="utf-8"?>
<!-- Generator: Adobe Illustrator 18.1.1, SVG Export Plug-In . SVG Version: 6.00 Build 0)  -->
<svg version="1.1" id="Layer_1" xmlns="http://www.w3.org/2000/svg" xmlns:xlink="http://www.w3.org/1999/xlink" x="0px" y="0px"
	 viewBox="0 0 24 24" enable-background="new 0 0 24 24" xml:space="preserve">
<g>
	<path fill="#FFFFFF" d="M9.5,22.2c-0.6,0-3.7,0-3.7-0.9c0-0.3,0.3-0.5,0.5-0.6l0.1,0c0.2-0.1,0.5-0.2,0.8-0.3
		c0.5-0.2,1.1-0.3,1.7-0.3c0.5,0,1.2,0,1.7,0c0.5,0,0.9,0.1,1.4,0.3c0.2,0.1,0.5,0.2,0.7,0.3c0.2,0.1,0.5,0.2,0.5,0.6
		C13.1,21.7,11.9,22.2,9.5,22.2z M9.4,20.4c-0.2,0-0.3,0-0.5,0c-0.6,0-1.1,0.1-1.6,0.3C7,20.8,6.8,20.9,6.5,21l-0.1,0
		c-0.1,0.1-0.3,0.2-0.3,0.3c0,0.2,1,0.6,3.3,0.6c2.1,0,3.3-0.5,3.3-0.7c0-0.1-0.1-0.2-0.3-0.2c-0.2-0.1-0.4-0.2-0.6-0.3
		c-0.4-0.1-0.9-0.2-1.3-0.3C10.2,20.4,9.8,20.4,9.4,20.4z"/>
	<path fill="#FFFFFF" d="M22.9,10c0.1,0,0.2,0.1,0.2,0.2c0.3,0.1,0.8-0.1,0.9-0.2c-0.1-0.1-0.5-0.5-0.8-0.6c-0.1,0.1-0.2,0.1-0.2,0
		c-0.1-0.1-0.1-0.2-0.1-0.3C23,9.1,23.1,9,23.2,9.1c0,0,0.1,0,0.1,0.1c0.1,0,0.4,0.1,0.8,0.5c0,0,0-0.1,0-0.1
		c-0.1-0.5-0.6-0.9-1.1-0.8c-0.3,0-0.5,0.2-0.6,0.4C22.2,9.1,22.1,9.1,22,9c-0.8-0.4-1.8-0.7-2.7-0.7c-1.1,0-2.2,0.4-3.1,0.9
		c-0.3,0.2-0.5,0.4-0.8,0.6c-0.2,0.2-0.5,0.4-0.7,0.6c-0.2,0.3-0.3,0.5-0.2,0.6c0,0,0.1,0,0.1-0.1c0.1-0.1,0.1-0.1,0.2-0.2
		c1.6-1.4,3.6-2.1,5.7-1.8c0.4,0.1,0.7,0.1,1.1,0.3c0.1,0.1,0.5,0.2,0.6,0.3c-0.5,0-2.9,0-4.5,0.8c0,0,0,0,0,0c0,0,0,0,0,0
		c0,0,0,0,0,0c-0.1,0-0.1,0.1-0.2,0.1c-0.8,0.4-1.4,0.9-2,1.6c-1.1,1.3-1.4,2.8-1.9,4.4c-0.3,0.9-0.9,1.8-1.6,2.5
		c-0.1,0.1-0.2,0.2-0.3,0.2c0,0-0.1,0-0.1,0c-0.5-0.1-1-0.2-1.4-0.2c0-0.8,0.2-1.6,0.5-2.3l0.6-1.4c0.4-0.8,0.8-1.6,1.4-2.3l0.5-0.6
		c-0.2-0.8-0.4-1.5-0.8-2.3c-0.5-1-0.9-2-1.2-3C10.7,6,10.7,5,10.8,3.8c0,0,0-0.1,0-0.2c0.4,0,0.8-0.2,1-0.6
		c0.1-0.3,0.1-0.6-0.1-0.9c-0.1,0.5-0.2,0.8-0.3,0.9c0,0,0,0.1,0,0.1c0,0.1-0.1,0.1-0.2,0.1C11,3.2,11,3.1,11,3
		c0-0.1,0.1-0.1,0.2-0.1c0.2-0.2,0.3-0.7,0.3-0.8c-0.1,0-0.7,0.1-0.9,0.3c0,0.1,0,0.2-0.1,0.2c-0.1,0-0.2,0-0.3-0.1
		c0-0.1,0-0.2,0.1-0.2c0,0,0.1,0,0.1,0c0.1-0.1,0.3-0.2,0.9-0.4c0,0-0.1,0-0.1-0.1c-0.5-0.2-1.1,0-1.3,0.5c-0.1,0.2-0.1,0.5,0,0.7
		C9.7,3.3,9.5,3.5,9.4,3.5C8.7,4,8.1,4.7,7.8,5.6C7,7.5,7.1,9.8,7.4,11.7c0,0.1,0.1,0.3,0.2,0.3C7.7,12,7.5,8.5,8,6.9
		c0.2-0.6,0.4-1.2,0.7-1.7c0.2-0.3,0.3-0.5,0.6-0.8c0.1-0.1,0.2-0.2,0.3-0.3C9.7,4,9.8,4,9.9,3.9c0,0,0.1-0.1,0.2-0.2
		C9.7,5,9.4,6.4,9.4,7.8c0,1.1,0.2,2.2,0.4,3.3c0,0,0,0,0,0.1c0.1,0.4,0.2,0.9,0.3,1.3c0.5,2.2,0.2,4.2,0,4.8
		c-0.1-0.7-0.6-3.1-3.9-4.1c-0.4-0.2-0.9-0.4-1.3-0.5c-0.1,0-0.2-0.1-0.3-0.1c-1.8-0.9-2.6-1.9-3-2.4c0,0,0,0,0,0
		C1.9,9.8,2,9.4,1.9,9.1C1.9,8.8,1.6,8.5,1.3,8.5c0.3,0.5,0.3,0.7,0.3,0.9c0,0,0,0,0.1,0.1c0,0.1,0,0.2-0.1,0.2
		c-0.1,0-0.2,0-0.2-0.1c0-0.1,0-0.2,0.1-0.2C1.4,9,1.2,8.6,1.1,8.4C1,8.5,0.6,9,0.6,9.2c0.1,0,0.1,0.1,0.1,0.2
		C0.6,9.6,0.5,9.6,0.4,9.6c-0.1,0-0.1-0.2-0.1-0.2c0,0,0-0.1,0.1-0.1c0-0.1,0.1-0.4,0.5-0.8c0,0-0.1,0-0.1,0C0.2,8.6-0.1,9.1,0,9.6
		c0.1,0.3,0.3,0.5,0.5,0.6c-0.1,0.4-0.3,1.7,0.4,3.9c0.8,2.8,3.8,4,3.8,4s1,0.7-1.8-2.1c-2-2.1-2.2-4.3-2.1-5.4
		c0-0.1,0.1-0.3,0.1-0.4c0.6,1.8,2,2.9,3.4,4c1.5,1.2,2.7,2.6,3.1,4.4c0,0.1,0,0.2,0.1,0.3c-0.9,0.2-1.4,0.5-1.6,0.6
		c0,0-0.1,0-0.1,0c0,0.1,0,0.2,0,0.3V20c-0.1,0-0.2,0.1-0.2,0.2c0,0.1,0.1,0.2,0.2,0.2v0.4c0,0,0.8-0.9,3.6-1c2.7,0,3.6,0.9,3.6,0.9
		s0-0.1,0-0.3c0.1,0,0.2-0.1,0.2-0.2c0-0.1-0.1-0.2-0.2-0.2c0-0.2,0-0.3,0-0.3c0-0.1,0-0.1,0-0.2c0,0,1.2-0.7,1.7-1.1
		c0.7-0.5,1.1-1.3,1.4-2.1c0.3-0.9,0.6-1.9,0.8-2.8c0.2-0.9,0.8-1.7,1.6-2.2c0.8-0.5,1.7-0.8,2.7-1c0.1,0,0.9-0.1,0.9-0.1
		c0.2,0.4,0.6,0.6,1,0.5c0.3-0.1,0.6-0.3,0.7-0.6c-0.5,0.2-0.8,0.2-0.9,0.2c0,0-0.1,0-0.1,0c-0.1,0-0.2-0.1-0.2-0.2
		C22.7,10.1,22.8,10,22.9,10z M4.8,14.5L4.8,14.5l0.1,0.1C4.8,14.6,4.8,14.6,4.8,14.5z M5.8,15.5L5.8,15.5L5.8,15.5
		C5.8,15.6,5.8,15.6,5.8,15.5z M6.7,20c-0.1,0-0.2-0.1-0.2-0.2c0-0.1,0.1-0.2,0.2-0.2s0.2,0.1,0.2,0.2C6.9,19.9,6.8,20,6.7,20z
		 M8,19.7c-0.1,0-0.2-0.1-0.2-0.2s0.1-0.2,0.2-0.2s0.2,0.1,0.2,0.2S8.1,19.7,8,19.7z M9.6,19.5c-0.1,0-0.2-0.1-0.2-0.2
		s0.1-0.2,0.2-0.2c0.1,0,0.2,0.1,0.2,0.2S9.7,19.5,9.6,19.5z M11,19.6c-0.1,0-0.2-0.1-0.2-0.2s0.1-0.2,0.2-0.2
		c0.1,0,0.2,0.1,0.2,0.2S11.1,19.6,11,19.6z M12.3,20c-0.1,0-0.2-0.1-0.2-0.2c0-0.1,0.1-0.2,0.2-0.2c0.1,0,0.2,0.1,0.2,0.2
		C12.5,19.9,12.4,20,12.3,20z"/>
</g>
</svg>
