<?xml version="1.0" encoding="utf-8"?>
<!-- Generator: Adobe Illustrator 16.0.4, SVG Export Plug-In . SVG Version: 6.00 Build 0)  -->
<!DOCTYPE svg PUBLIC "-//W3C//DTD SVG 1.1//EN" "http://www.w3.org/Graphics/SVG/1.1/DTD/svg11.dtd">
<svg version="1.1" id="Layer_1" xmlns="http://www.w3.org/2000/svg" xmlns:xlink="http://www.w3.org/1999/xlink" x="0px" y="0px"
	 width="24px" height="24px" viewBox="0 0 24 24" enable-background="new 0 0 24 24" xml:space="preserve">
<g>
	<g>
		<path d="M7.518,0.019v18.874c0,2.212-0.044,3.716-0.132,4.501c-0.094,0.783-0.369,1.472-0.826,2.066
			c-0.464,0.595-1.082,1.034-1.853,1.321c-0.776,0.288-1.935,0.432-3.481,0.432h-2.802v-3.811c0.858,0,1.348-0.097,1.456-0.29
			c0.108-0.188,0.161-1.386,0.161-3.593V0.019H7.518z"/>
		<path d="M26.574,12.365h-9.402v5.155c0,1.082,0.076,1.776,0.235,2.09c0.155,0.311,0.454,0.466,0.899,0.466
			c0.548,0,0.917-0.205,1.104-0.618c0.185-0.413,0.278-1.214,0.278-2.4V13.91h6.885v1.761c0,1.478-0.094,2.611-0.278,3.4
			c-0.188,0.791-0.618,1.635-1.305,2.535c-0.683,0.899-1.55,1.573-2.597,2.021c-1.052,0.448-2.368,0.672-3.947,0.672
			c-1.533,0-2.887-0.221-4.062-0.666c-1.175-0.439-2.086-1.052-2.74-1.822c-0.653-0.774-1.107-1.624-1.356-2.553
			c-0.252-0.927-0.378-2.28-0.378-4.054V8.251c0-2.087,0.278-3.731,0.844-4.933c0.562-1.207,1.486-2.131,2.77-2.772
			c1.281-0.639,2.758-0.961,4.423-0.961c2.036,0,3.716,0.387,5.041,1.16c1.324,0.773,2.253,1.797,2.787,3.074
			c0.533,1.275,0.8,3.071,0.8,5.384V12.365z M19.293,8.485V6.741c0-1.236-0.067-2.033-0.199-2.392
			c-0.132-0.36-0.401-0.539-0.809-0.539c-0.504,0-0.814,0.152-0.935,0.457c-0.121,0.305-0.18,1.129-0.18,2.474v1.744H19.293z"/>
		<path d="M43.777,7.639h-6.438V6.346c0-1.102-0.062-1.8-0.188-2.096c-0.126-0.293-0.443-0.439-0.944-0.439
			c-0.407,0-0.712,0.132-0.914,0.404c-0.208,0.267-0.305,0.675-0.305,1.211c0,0.732,0.05,1.269,0.149,1.608
			c0.103,0.343,0.407,0.722,0.917,1.126c0.51,0.407,1.554,0.999,3.133,1.778c2.113,1.032,3.497,2.002,4.156,2.91
			c0.659,0.912,0.984,2.236,0.984,3.975c0,1.94-0.249,3.408-0.75,4.396c-0.504,0.988-1.346,1.75-2.526,2.283
			c-1.181,0.53-2.603,0.798-4.271,0.798c-1.843,0-3.426-0.288-4.738-0.862c-1.311-0.574-2.21-1.354-2.702-2.339
			c-0.492-0.979-0.735-2.467-0.735-4.454v-1.152h6.433v1.51c0,1.283,0.082,2.119,0.243,2.5c0.164,0.381,0.483,0.574,0.961,0.574
			c0.516,0,0.874-0.129,1.079-0.384c0.205-0.258,0.308-0.8,0.308-1.627c0-1.14-0.132-1.852-0.398-2.142
			c-0.275-0.285-1.683-1.138-4.221-2.553c-2.137-1.199-3.435-2.286-3.903-3.263c-0.466-0.973-0.701-2.133-0.701-3.476
			c0-1.904,0.253-3.312,0.754-4.217c0.504-0.903,1.359-1.604,2.564-2.093c1.204-0.492,2.603-0.738,4.196-0.738
			c1.583,0,2.928,0.202,4.036,0.604c1.107,0.401,1.96,0.932,2.553,1.591c0.592,0.66,0.955,1.27,1.075,1.835
			c0.129,0.562,0.193,1.442,0.193,2.641V7.639z"/>
		<path d="M53.929-1.922V0.59h1.957v3.777h-1.957v12.761c0,1.571,0.082,2.447,0.243,2.623c0.164,0.182,0.835,0.272,2.021,0.272
			v3.845h-2.928c-1.652,0-2.834-0.067-3.543-0.205s-1.33-0.454-1.87-0.952c-0.539-0.498-0.876-1.066-1.005-1.709
			c-0.132-0.642-0.199-2.147-0.199-4.519V4.367h-1.562V0.59h1.562v-2.512H53.929z"/>
		<path d="M73.937,12.365h-9.402v5.155c0,1.082,0.076,1.776,0.235,2.09c0.155,0.311,0.454,0.466,0.896,0.466
			c0.554,0,0.92-0.205,1.104-0.618c0.188-0.413,0.278-1.214,0.278-2.4V13.91h6.888v1.761c0,1.478-0.094,2.611-0.278,3.4
			c-0.188,0.791-0.624,1.635-1.305,2.535c-0.683,0.899-1.55,1.573-2.597,2.021c-1.049,0.448-2.368,0.672-3.944,0.672
			c-1.536,0-2.89-0.221-4.062-0.666c-1.178-0.439-2.089-1.052-2.743-1.822c-0.653-0.774-1.104-1.624-1.359-2.553
			c-0.249-0.927-0.375-2.28-0.375-4.054V8.251c0-2.087,0.284-3.731,0.847-4.933c0.56-1.207,1.486-2.131,2.767-2.772
			c1.281-0.639,2.755-0.961,4.423-0.961c2.036,0,3.716,0.387,5.041,1.16c1.324,0.773,2.253,1.797,2.787,3.074
			c0.533,1.275,0.8,3.071,0.8,5.384V12.365z M66.657,8.485V6.741c0-1.236-0.067-2.033-0.199-2.392
			c-0.132-0.36-0.401-0.539-0.809-0.539c-0.501,0-0.814,0.152-0.935,0.457c-0.121,0.305-0.18,1.129-0.18,2.474v1.744H66.657z"/>
		<path d="M83.567,0.019l-0.284,3.133c1.056-2.245,2.585-3.432,4.584-3.566v8.396c-1.328,0-2.307,0.179-2.931,0.539
			c-0.621,0.36-1.009,0.858-1.152,1.5c-0.141,0.643-0.217,2.116-0.217,4.432v9.416h-7.256V0.019H83.567z"/>
		<path d="M104.317,7.639h-6.439V6.346c0-1.102-0.062-1.8-0.188-2.096c-0.129-0.293-0.442-0.439-0.943-0.439
			c-0.407,0-0.712,0.132-0.92,0.404c-0.199,0.267-0.302,0.675-0.302,1.211c0,0.732,0.047,1.269,0.152,1.608
			c0.1,0.343,0.407,0.722,0.917,1.126c0.507,0.407,1.554,0.999,3.133,1.778c2.11,1.032,3.493,2.002,4.156,2.91
			c0.659,0.912,0.987,2.236,0.987,3.975c0,1.94-0.252,3.408-0.753,4.396c-0.507,0.988-1.349,1.75-2.529,2.283
			c-1.182,0.53-2.6,0.798-4.268,0.798c-1.846,0-3.423-0.288-4.735-0.862c-1.316-0.574-2.213-1.354-2.705-2.339
			c-0.493-0.979-0.739-2.467-0.739-4.454v-1.152h6.437v1.51c0,1.283,0.082,2.119,0.24,2.5c0.164,0.381,0.483,0.574,0.964,0.574
			c0.513,0,0.876-0.129,1.078-0.384c0.203-0.258,0.309-0.8,0.309-1.627c0-1.14-0.136-1.852-0.399-2.142
			c-0.275-0.285-1.682-1.138-4.226-2.553c-2.131-1.199-3.429-2.286-3.898-3.263c-0.469-0.973-0.7-2.133-0.7-3.476
			c0-1.904,0.249-3.312,0.754-4.217c0.504-0.903,1.356-1.604,2.561-2.093c1.208-0.492,2.603-0.738,4.197-0.738
			c1.583,0,2.928,0.202,4.035,0.604c1.111,0.401,1.961,0.932,2.556,1.591c0.59,0.66,0.953,1.27,1.079,1.835
			c0.123,0.562,0.19,1.442,0.19,2.641V7.639z"/>
	</g>
	<path d="M-3.097-12.171c-0.129-0.366,0.067-0.768,0.437-0.896c0.366-0.126,0.771,0.064,0.897,0.434
		c0.129,0.369-0.064,0.774-0.435,0.9C-2.567-11.604-2.968-11.801-3.097-12.171 M8.28-9.349c0.53,1.398-0.36,2.711-0.7,3.201
		C7.237-5.655,6.408-4.8,6.408-4.8s1.418-0.041,1.77,0.979c0,0,0.325-0.17,0.439,0.159c0.117,0.334-0.214,0.434-0.214,0.434
		l0.138,0.396c0,0-1.945-1.252-7.558,0.697c-5.612,1.952-6.182,4.232-6.182,4.232l-0.19-0.54c0,0-0.416,0.173-0.527-0.193
		C-6.031,1-5.588,0.968-5.588,0.968l-0.141-0.398c0,0,0.023-0.741,0.997-1.424c0,0-2.219-0.15-3.099-0.821
		C-8.718-2.344-9.673-3.29-9.123-4.24c0.554-0.949,1.817-1.503,4.44-0.416c0,0-1.19-2.784,0.782-3.435c0,0,1.151-0.668,3.408,1.609
		c0,0,0.161-2.582,1.135-3.058c0.973-0.48,1.409-0.431,1.919,0.05C3.075-9.002,3.459-7.971,3.667-6.96c0,0,0.943-2.109,1.896-2.685
		C6.513-10.219,7.75-10.743,8.28-9.349 M-4.348-1.23c0,0,1.084-0.829,1.556-0.961c0,0-1.512-1.395-1.535-1.841
		c0,0-1.313-0.765-2.207-0.82c-0.896-0.056-1.729,0.082-1.99,0.864c-0.255,0.78,0.877,1.779,1.571,2.066
		C-6.256-1.635-5.914-1.453-4.348-1.23 M-0.301-4.923c-0.044-0.375-1.066-1.582-1.482-2.002C-2.198-7.341-3.05-8.018-3.777-7.689
		S-4.544-6.32-4.169-5.38C-3.803-4.442-3.51-4.056-3.51-4.056s0.958,0.602,1.501,1.451c0,0,1.688-0.823,2.089-0.908
		C0.08-3.513-0.26-4.551-0.301-4.923 M0.769-3.763c0,0,2.224-0.75,2.394-0.639c0,0-0.059-1.503,0.282-2.042
		c0,0-0.385-2.034-0.944-2.444C1.935-9.299,0.851-9.589,0.399-7.877C-0.052-6.165,0.769-3.763,0.769-3.763 M6.067-4.794
		C7.058-5.55,7.849-7.188,8.004-7.725C8.16-8.264,8.113-8.721,7.776-9.23c-0.34-0.508-1.222-0.385-2.219,0.448
		C4.561-7.953,3.776-6.297,3.776-6.297c0.199,0.48,0.097,1.734,0.097,1.734c0.642-0.231,2.171-0.214,2.171-0.214
		C6.049-4.782,6.055-4.788,6.067-4.794 M5.118-12.654c-0.697-0.437-1.263-0.885-3.344,0.372c0,0-1.677,1.132-2.286,1.141
		c-0.609,0.012-1.392-0.41-1.392-0.41s0.715,1.213,0.642,1.532c0,0-0.023,0.325-0.202,0.442c-0.108,0-0.856-0.079-0.897-1.813
		c0,0-0.454,1.113-1.102,1.371c-0.647,0.261-2.664,0.372-3.183,0.501S-8.414-9.005-8.61-8.012C-8.809-7.019-8.03-6.15-7.898-6.033
		c0.138,0.117,0.174,0.237,1,0.311s1.333,0.287,1.392,0.325c0.062,0.038-0.68-1.258,0.023-2.219C-4.773-8.577-3.868-8.984-3.1-8.75
		c0.706,0.217,2.081,1.23,2.289,1.386l0.026,0.041c0,0,0-0.009,0.003-0.018h-0.003c0.029-0.185,0.255-1.834,0.56-2.189
		c0,0,0.794-1.348,2.406-1.061c1.618,0.296,1.797,2.093,1.806,2.154c0.003,0.059,0.697-1.428,1.688-1.99
		C5.674-10.427,5.812-12.215,5.118-12.654 M-1.215-4.149c-0.047-0.144-0.208-0.22-0.349-0.173C-1.71-4.27-1.787-4.114-1.737-3.968
		c0.05,0.144,0.208,0.22,0.352,0.17C-1.239-3.848-1.166-4.006-1.215-4.149 M-3.604-2.294c-0.053-0.141-0.208-0.217-0.354-0.167
		c-0.144,0.053-0.22,0.208-0.17,0.352s0.208,0.22,0.352,0.173C-3.63-1.986-3.554-2.145-3.604-2.294 M2.237-5.348
		C2.187-5.491,2.029-5.57,1.885-5.521s-0.22,0.208-0.17,0.354c0.05,0.141,0.208,0.217,0.354,0.167
		C2.213-5.049,2.287-5.207,2.237-5.348 M5.276-5.377c-0.05-0.144-0.208-0.22-0.349-0.17c-0.149,0.05-0.223,0.208-0.176,0.349
		c0.053,0.149,0.208,0.223,0.354,0.173C5.25-5.075,5.329-5.233,5.276-5.377 M2.167-6.699C2.099-6.893,1.885-7.001,1.689-6.928
		C1.493-6.86,1.39-6.649,1.458-6.452c0.073,0.196,0.281,0.299,0.48,0.234C2.131-6.288,2.237-6.502,2.167-6.699 M5.938-6.644
		c-0.067-0.199-0.284-0.299-0.48-0.231C5.264-6.808,5.162-6.594,5.229-6.396c0.067,0.193,0.278,0.296,0.478,0.229
		C5.9-6.232,6.005-6.446,5.938-6.644 M-1.845-5.307C-1.913-5.5-2.126-5.603-2.324-5.535C-2.52-5.468-2.623-5.257-2.555-5.058
		c0.07,0.196,0.284,0.299,0.479,0.231C-1.88-4.894-1.778-5.107-1.845-5.307 M-4.826-2.792C-4.89-2.988-5.108-3.091-5.304-3.021
		C-5.498-2.95-5.6-2.742-5.533-2.546s0.278,0.302,0.475,0.234C-4.858-2.382-4.758-2.596-4.826-2.792 M-5.837-3.742
		C-5.928-4-6.297-4.105-6.664-3.979c-0.369,0.129-0.595,0.44-0.501,0.701c0.088,0.258,0.46,0.366,0.826,0.237
		C-5.972-3.167-5.747-3.483-5.837-3.742 M-2.347-6.608C-2.438-6.866-2.81-6.972-3.176-6.843c-0.363,0.126-0.589,0.44-0.501,0.698
		c0.091,0.258,0.463,0.366,0.826,0.237C-2.479-6.033-2.256-6.35-2.347-6.608 M2.331-8.231C2.243-8.489,1.874-8.598,1.501-8.469
		C1.135-8.343,0.91-8.029,1-7.771c0.091,0.261,0.46,0.369,0.829,0.24C2.196-7.663,2.421-7.971,2.331-8.231 M7.125-8.237
		c-0.091-0.261-0.457-0.369-0.829-0.24c-0.367,0.126-0.59,0.439-0.499,0.7C5.885-7.52,6.255-7.411,6.625-7.54
		S7.216-7.979,7.125-8.237 M7.099-2.874c0.914,0.129,1.104,0.255,1.213,0.489C8.417-2.15,7.685-1.321,7.111-0.937
		c-0.574,0.384-1.8,1.116-2.649,1.494C3.609,0.936,2.58,1.29,1.874,1.542C1.165,1.791-0.791,2.343-1.839,2.46
		c-1.047,0.111-2.717,0.211-2.975-0.328c0,0-0.183-0.979,2.641-2.433c2.822-1.451,4.967-1.967,5.31-2.031
		C3.483-2.394,6.188-3.006,7.099-2.874 M6.967-1.535c0.498-0.454,0.366-0.609,0.182-0.75c-0.188-0.149-0.773-0.129-1.665-0.05
		C4.596-2.25,2.178-1.638,1.988-1.57C1.797-1.506,0.71-1.222-1.749-0.014c-2.462,1.201-1.984,1.77-1.984,1.77
		c0.243,0.303,0.829,0.276,0.829,0.276c0.618,0.103,1.729-0.185,2.854-0.432C1.077,1.357,2.87,0.695,4.089,0.209
		C5.311-0.271,6.472-1.075,6.967-1.535"/>
	<g>
		<path d="M10.027-9.002v-1.185h5.243v1.185h-1.917v5.219h-1.406v-5.219H10.027z"/>
		<path d="M17.418-10.187v2.456h2.587v-2.456h1.41v6.403h-1.41v-2.764h-2.587v2.764h-1.41v-6.403H17.418z"/>
		<path d="M27.444-10.187v1.185h-3.382v1.371h3.101v1.096h-3.101v1.568h3.452v1.184h-4.862v-6.403H27.444z"/>
		<path d="M35.064-8.478c-0.085-0.135-0.188-0.252-0.313-0.354c-0.126-0.1-0.267-0.182-0.425-0.237S34-9.151,33.827-9.151
			c-0.316,0-0.586,0.059-0.806,0.182c-0.223,0.12-0.401,0.287-0.539,0.492c-0.138,0.208-0.24,0.439-0.299,0.706
			c-0.064,0.261-0.094,0.53-0.094,0.814c0,0.27,0.029,0.531,0.094,0.786c0.059,0.252,0.161,0.483,0.299,0.686
			s0.316,0.366,0.539,0.486c0.22,0.123,0.489,0.185,0.806,0.185c0.432,0,0.766-0.129,1.009-0.393s0.393-0.609,0.445-1.043h1.359
			c-0.032,0.404-0.129,0.765-0.275,1.084c-0.149,0.325-0.346,0.598-0.592,0.826s-0.53,0.401-0.861,0.521
			c-0.328,0.118-0.691,0.18-1.085,0.18c-0.489,0-0.932-0.085-1.321-0.256c-0.393-0.17-0.724-0.407-0.993-0.703
			c-0.267-0.302-0.476-0.65-0.619-1.055c-0.141-0.401-0.214-0.838-0.214-1.305c0-0.48,0.073-0.923,0.214-1.33
			c0.144-0.413,0.353-0.768,0.619-1.073c0.27-0.305,0.601-0.545,0.993-0.718c0.39-0.176,0.832-0.261,1.321-0.261
			c0.353,0,0.687,0.053,1.003,0.152c0.311,0.103,0.592,0.249,0.841,0.445c0.249,0.193,0.454,0.434,0.612,0.722
			c0.161,0.287,0.267,0.615,0.308,0.987h-1.362C35.205-8.193,35.146-8.343,35.064-8.478z"/>
		<path d="M37.541-8.287c0.144-0.413,0.352-0.768,0.618-1.073c0.27-0.305,0.598-0.545,0.99-0.718
			c0.393-0.176,0.836-0.261,1.322-0.261c0.495,0,0.94,0.085,1.327,0.261c0.39,0.173,0.719,0.413,0.988,0.718
			c0.27,0.306,0.478,0.66,0.618,1.073c0.144,0.407,0.214,0.85,0.214,1.33c0,0.467-0.07,0.903-0.214,1.305
			c-0.141,0.404-0.349,0.753-0.618,1.055c-0.27,0.296-0.599,0.533-0.988,0.703c-0.387,0.171-0.832,0.256-1.327,0.256
			c-0.486,0-0.93-0.085-1.322-0.256c-0.393-0.17-0.721-0.407-0.99-0.703c-0.267-0.302-0.475-0.65-0.618-1.055
			c-0.144-0.401-0.217-0.838-0.217-1.305C37.324-7.438,37.397-7.88,37.541-8.287z M38.827-6.171
			c0.062,0.252,0.164,0.483,0.302,0.686c0.135,0.202,0.316,0.366,0.537,0.486c0.223,0.123,0.489,0.185,0.806,0.185
			c0.319,0,0.589-0.062,0.809-0.185c0.223-0.12,0.401-0.284,0.539-0.486s0.234-0.434,0.299-0.686
			c0.064-0.255,0.094-0.517,0.094-0.786c0-0.284-0.029-0.554-0.094-0.814c-0.064-0.267-0.161-0.498-0.299-0.706
			C41.681-8.683,41.502-8.85,41.28-8.97c-0.22-0.123-0.489-0.182-0.809-0.182c-0.316,0-0.583,0.059-0.806,0.182
			c-0.221,0.12-0.402,0.287-0.537,0.492c-0.138,0.208-0.24,0.439-0.302,0.706c-0.062,0.261-0.094,0.53-0.094,0.814
			C38.733-6.688,38.765-6.426,38.827-6.171z"/>
		<path d="M49.29-4.27c-0.486,0.422-1.154,0.631-2.008,0.631c-0.87,0-1.541-0.209-2.016-0.628C44.791-4.683,44.55-5.33,44.55-6.203
			v-3.983h1.41v3.983c0,0.173,0.015,0.346,0.044,0.51c0.032,0.17,0.094,0.316,0.19,0.445c0.094,0.129,0.229,0.231,0.396,0.316
			c0.173,0.079,0.398,0.117,0.691,0.117c0.498,0,0.848-0.111,1.038-0.334s0.287-0.577,0.287-1.055v-3.983h1.406v3.983
			C50.013-5.336,49.77-4.691,49.29-4.27z"/>
		<path d="M54.676-10.187c0.29,0,0.548,0.047,0.776,0.141c0.229,0.091,0.425,0.22,0.592,0.381c0.164,0.158,0.291,0.349,0.379,0.561
			c0.085,0.214,0.129,0.442,0.129,0.686c0,0.378-0.079,0.703-0.237,0.979c-0.159,0.275-0.42,0.483-0.777,0.627v0.018
			c0.176,0.05,0.316,0.12,0.434,0.22c0.108,0.101,0.205,0.218,0.275,0.35c0.071,0.132,0.124,0.281,0.159,0.445
			c0.029,0.161,0.056,0.322,0.067,0.483c0.003,0.1,0.012,0.22,0.015,0.357c0.006,0.138,0.015,0.278,0.032,0.422
			c0.015,0.144,0.041,0.281,0.073,0.407c0.032,0.132,0.082,0.237,0.149,0.328h-1.41c-0.079-0.205-0.126-0.445-0.144-0.727
			s-0.044-0.548-0.082-0.806c-0.047-0.337-0.149-0.58-0.305-0.735c-0.152-0.155-0.407-0.234-0.762-0.234h-1.407v2.502h-1.409v-6.403
			H54.676z M54.178-7.291c0.319,0,0.562-0.07,0.721-0.214c0.167-0.144,0.246-0.375,0.246-0.697c0-0.311-0.079-0.536-0.246-0.68
			c-0.158-0.141-0.401-0.208-0.721-0.208h-1.545v1.799H54.178z"/>
		<path d="M57.036-9.002v-1.185h5.246v1.185h-1.92v5.219h-1.407v-5.219H57.036z"/>
	</g>
</g>
<g>
</g>
<g>
</g>
<g>
</g>
<g>
</g>
<g>
</g>
<g>
</g>
<g>
</g>
<g>
</g>
<g>
</g>
<g>
</g>
<g>
</g>
<g>
</g>
<g>
</g>
<g>
</g>
<g>
</g>
</svg>
