<?xml version="1.0" encoding="utf-8"?>
<!-- Generator: Adobe Illustrator 16.0.4, SVG Export Plug-In . SVG Version: 6.00 Build 0)  -->
<!DOCTYPE svg PUBLIC "-//W3C//DTD SVG 1.1//EN" "http://www.w3.org/Graphics/SVG/1.1/DTD/svg11.dtd">
<svg version="1.1" id="Layer_11" xmlns="http://www.w3.org/2000/svg" xmlns:xlink="http://www.w3.org/1999/xlink" x="0px" y="0px"
	 width="24px" height="24px" viewBox="0 0 24 24" enable-background="new 0 0 24 24" xml:space="preserve">
<path d="M9.094,9.824c-0.681,0-1.259,0.436-1.474,1.044c-0.058-0.164-0.091-0.339-0.091-0.522c0-0.863,0.701-1.564,1.565-1.564
	c0.593,0,1.11,0.33,1.375,0.816c0.072-1.279,0.263-2.398,0.457-3.259H0.338c-0.09,0-0.176,0.036-0.239,0.101
	C0.036,6.502,0,6.587,0,6.677c0,0.079,0.072,8.007,6.286,12.568c0.06,0.044,0.13,0.066,0.201,0.066c0.07,0,0.141-0.022,0.2-0.066
	c1.9-1.395,3.226-3.141,4.152-4.885c-0.294-1.316-0.403-2.593-0.399-3.767C10.167,10.133,9.667,9.824,9.094,9.824z M2.556,10.868
	c-0.058-0.164-0.091-0.339-0.091-0.522c0-0.863,0.701-1.564,1.565-1.564c0.864,0,1.565,0.701,1.565,1.564
	c0,0.184-0.033,0.358-0.091,0.522C5.289,10.259,4.711,9.824,4.03,9.824C3.349,9.824,2.771,10.259,2.556,10.868z M6.32,16.146
	c-1.264,0-2.289-0.701-2.289-1.564c0-0.184,0.048-0.357,0.133-0.521c0.315,0.607,1.16,1.043,2.156,1.043
	c0.997,0,1.842-0.436,2.157-1.043c0.085,0.164,0.133,0.338,0.133,0.521C8.61,15.444,7.584,16.146,6.32,16.146z M23.973,9.381
	c-0.035-0.084-0.104-0.149-0.188-0.183L12.337,4.71c-0.084-0.031-0.177-0.029-0.259,0.006c-0.082,0.036-0.147,0.104-0.18,0.188
	c-0.029,0.074-2.856,7.48,1.265,13.996c0.039,0.062,0.097,0.107,0.162,0.134s0.139,0.03,0.211,0.013
	C20.8,17.117,23.941,9.72,23.975,9.644C24.009,9.56,24.008,9.465,23.973,9.381z M13.234,8.247c0.067-0.171,0.162-0.321,0.275-0.453
	c-0.021,0.646,0.357,1.263,0.991,1.511s1.332,0.053,1.754-0.435c-0.006,0.174-0.039,0.349-0.106,0.521
	c-0.315,0.805-1.224,1.2-2.028,0.885C13.314,9.96,12.92,9.051,13.234,8.247z M12.773,14.108c0.326-0.801,1.541-1.062,2.711-0.582
	c1.17,0.479,1.854,1.515,1.527,2.314c-0.068,0.169-0.18,0.312-0.32,0.434c-0.062-0.683-0.678-1.405-1.602-1.782
	c-0.923-0.377-1.869-0.166-2.392,0.276C12.684,14.586,12.704,14.278,12.773,14.108z M20.864,11.238
	c-0.315,0.805-1.224,1.201-2.028,0.885c-0.805-0.314-1.201-1.225-0.886-2.027c0.067-0.172,0.161-0.322,0.274-0.453
	c-0.021,0.645,0.358,1.262,0.992,1.51c0.635,0.248,1.332,0.055,1.754-0.434C20.964,10.892,20.932,11.066,20.864,11.238z"/>
</svg>
