<?xml version="1.0" encoding="utf-8"?>
<!-- Generator: Adobe Illustrator 16.0.4, SVG Export Plug-In . SVG Version: 6.00 Build 0)  -->
<!DOCTYPE svg PUBLIC "-//W3C//DTD SVG 1.1//EN" "http://www.w3.org/Graphics/SVG/1.1/DTD/svg11.dtd">
<svg version="1.1" id="Layer_1" xmlns="http://www.w3.org/2000/svg" xmlns:xlink="http://www.w3.org/1999/xlink" x="0px" y="0px"
	 width="24px" height="24px" viewBox="0 0 24 24" enable-background="new 0 0 24 24" xml:space="preserve">
<g>
	<path d="M9.08,18.896l-1.904,0.309c-0.533,0.086-1.05-0.043-1.471-0.351C5.286,18.554,5,18.082,4.922,17.564l-0.167-1.111
		L1.45,19.759c-0.165,0.164-0.225,0.405-0.155,0.628c0.069,0.222,0.255,0.389,0.484,0.432l2.101,0.393l0.392,2.102
		c0.043,0.229,0.209,0.415,0.431,0.484c0.222,0.068,0.465,0.009,0.629-0.156l4.316-4.316l-0.316-0.319
		C9.263,18.935,9.171,18.896,9.08,18.896z"/>
	<path d="M15.107,18.123l1.844,0.305c0.309,0.051,0.625-0.023,0.877-0.208c0.252-0.183,0.422-0.461,0.469-0.771l0.277-1.844
		c0.057-0.369,0.287-0.688,0.621-0.855l1.668-0.834c0.279-0.141,0.492-0.387,0.589-0.684c0.097-0.298,0.069-0.621-0.073-0.899
		l-0.855-1.659c-0.172-0.329-0.172-0.724,0-1.052l0.856-1.658c0.144-0.277,0.169-0.601,0.072-0.899
		c-0.097-0.295-0.31-0.542-0.589-0.684l-1.668-0.834c-0.334-0.168-0.563-0.486-0.62-0.855l-0.278-1.843
		c-0.046-0.309-0.215-0.587-0.467-0.77c-0.254-0.185-0.57-0.259-0.878-0.209l-1.843,0.305c-0.366,0.062-0.74-0.06-1.002-0.325
		l-1.312-1.33C12.584,0.307,12.298,0.185,12,0.175c-0.298,0.01-0.584,0.131-0.796,0.345L9.892,1.85
		C9.629,2.115,9.256,2.236,8.89,2.175L7.047,1.871C6.739,1.821,6.422,1.895,6.17,2.08C5.918,2.263,5.749,2.541,5.703,2.85
		L5.424,4.693C5.368,5.062,5.138,5.38,4.803,5.548L3.135,6.382C2.855,6.523,2.644,6.77,2.546,7.066
		C2.45,7.364,2.478,7.687,2.62,7.965l0.858,1.657c0.171,0.33,0.171,0.724,0,1.053l-0.857,1.658c-0.143,0.28-0.17,0.602-0.073,0.9
		c0.096,0.298,0.309,0.543,0.588,0.685l1.668,0.834c0.334,0.168,0.565,0.486,0.622,0.854l0.278,1.845
		c0.046,0.309,0.216,0.586,0.468,0.77c0.253,0.186,0.569,0.259,0.877,0.208l1.844-0.304c0.367-0.062,0.74,0.061,1.002,0.326
		l1.312,1.328c0.211,0.215,0.496,0.336,0.794,0.346c0.299-0.01,0.583-0.131,0.794-0.346l1.312-1.328
		C14.368,18.185,14.74,18.062,15.107,18.123z M12,17.082c-3.904-0.021-7.073-3.199-7.073-7.108c0-3.907,3.169-7.088,7.073-7.108
		c3.903,0.02,7.074,3.201,7.074,7.108C19.073,13.883,15.902,17.062,12,17.082z"/>
	<path d="M12,3.891C8.667,3.912,5.961,6.627,5.961,9.964c0,3.335,2.705,6.051,6.038,6.073c3.333-0.021,6.038-2.736,6.038-6.073
		C18.037,6.627,15.332,3.912,12,3.891z"/>
	<path d="M22.55,19.759l-3.305-3.306l-0.167,1.11c-0.078,0.517-0.364,0.989-0.782,1.29c-0.421,0.309-0.938,0.438-1.471,0.352
		l-1.904-0.31c-0.094,0-0.185,0.038-0.252,0.106l-0.315,0.32l4.315,4.315c0.164,0.165,0.407,0.226,0.629,0.155
		c0.224-0.068,0.388-0.256,0.431-0.483l0.394-2.101l2.101-0.394c0.229-0.043,0.414-0.21,0.483-0.432S22.715,19.923,22.55,19.759z"/>
</g>
</svg>
