<?xml version="1.0" encoding="utf-8"?>
<!-- Generator: Adobe Illustrator 18.1.1, SVG Export Plug-In . SVG Version: 6.00 Build 0)  -->
<svg version="1.1" id="Layer_1" xmlns="http://www.w3.org/2000/svg" xmlns:xlink="http://www.w3.org/1999/xlink" x="0px" y="0px"
	 viewBox="-283 333 232 112" enable-background="new -283 333 232 112" xml:space="preserve">
<g>
	<g>
		<path fill="#FFFFFF" d="M-232.5,366v-2.2h9.9v2.2h-3.6v9.9h-2.7V366H-232.5z"/>
		<path fill="#FFFFFF" d="M-218.5,363.8v4.7h4.9v-4.7h2.7v12.1h-2.7v-5.2h-4.9v5.2h-2.7v-12.1H-218.5z"/>
		<path fill="#FFFFFF" d="M-199.5,363.8v2.2h-6.4v2.6h5.9v2.1h-5.9v3h6.5v2.2h-9.2v-12.1H-199.5z"/>
		<path fill="#FFFFFF" d="M-185,367c-0.2-0.3-0.4-0.5-0.6-0.7c-0.2-0.2-0.5-0.3-0.8-0.5c-0.3-0.1-0.6-0.2-0.9-0.2
			c-0.6,0-1.1,0.1-1.5,0.3c-0.4,0.2-0.8,0.5-1,0.9c-0.3,0.4-0.5,0.8-0.6,1.3c-0.1,0.5-0.2,1-0.2,1.5c0,0.5,0.1,1,0.2,1.5
			c0.1,0.5,0.3,0.9,0.6,1.3c0.3,0.4,0.6,0.7,1,0.9c0.4,0.2,0.9,0.3,1.5,0.3c0.8,0,1.5-0.2,1.9-0.7c0.5-0.5,0.7-1.2,0.8-2h2.6
			c-0.1,0.8-0.2,1.4-0.5,2.1c-0.3,0.6-0.7,1.1-1.1,1.6c-0.5,0.4-1,0.8-1.6,1c-0.6,0.2-1.3,0.3-2.1,0.3c-0.9,0-1.8-0.2-2.5-0.5
			c-0.7-0.3-1.4-0.8-1.9-1.3c-0.5-0.6-0.9-1.2-1.2-2c-0.3-0.8-0.4-1.6-0.4-2.5c0-0.9,0.1-1.7,0.4-2.5c0.3-0.8,0.7-1.5,1.2-2
			c0.5-0.6,1.1-1,1.9-1.4c0.7-0.3,1.6-0.5,2.5-0.5c0.7,0,1.3,0.1,1.9,0.3c0.6,0.2,1.1,0.5,1.6,0.8c0.5,0.4,0.9,0.8,1.2,1.4
			c0.3,0.5,0.5,1.2,0.6,1.9h-2.6C-184.8,367.6-184.9,367.3-185,367z"/>
		<path fill="#FFFFFF" d="M-180.4,367.4c0.3-0.8,0.7-1.5,1.2-2c0.5-0.6,1.1-1,1.9-1.4c0.7-0.3,1.6-0.5,2.5-0.5
			c0.9,0,1.8,0.2,2.5,0.5c0.7,0.3,1.4,0.8,1.9,1.4c0.5,0.6,0.9,1.3,1.2,2c0.3,0.8,0.4,1.6,0.4,2.5c0,0.9-0.1,1.7-0.4,2.5
			c-0.3,0.8-0.7,1.4-1.2,2c-0.5,0.6-1.1,1-1.9,1.3c-0.7,0.3-1.6,0.5-2.5,0.5c-0.9,0-1.8-0.2-2.5-0.5c-0.7-0.3-1.4-0.8-1.9-1.3
			c-0.5-0.6-0.9-1.2-1.2-2c-0.3-0.8-0.4-1.6-0.4-2.5C-180.8,369-180.6,368.2-180.4,367.4z M-177.9,371.4c0.1,0.5,0.3,0.9,0.6,1.3
			c0.3,0.4,0.6,0.7,1,0.9c0.4,0.2,0.9,0.3,1.5,0.3c0.6,0,1.1-0.1,1.5-0.3c0.4-0.2,0.8-0.5,1-0.9c0.3-0.4,0.5-0.8,0.6-1.3
			c0.1-0.5,0.2-1,0.2-1.5c0-0.5-0.1-1-0.2-1.5c-0.1-0.5-0.3-0.9-0.6-1.3c-0.3-0.4-0.6-0.7-1-0.9c-0.4-0.2-0.9-0.3-1.5-0.3
			c-0.6,0-1.1,0.1-1.5,0.3c-0.4,0.2-0.8,0.5-1,0.9c-0.3,0.4-0.5,0.8-0.6,1.3c-0.1,0.5-0.2,1-0.2,1.5
			C-178.1,370.4-178,370.9-177.9,371.4z"/>
		<path fill="#FFFFFF" d="M-158.1,375c-0.9,0.8-2.2,1.2-3.8,1.2c-1.6,0-2.9-0.4-3.8-1.2c-0.9-0.8-1.4-2-1.4-3.7v-7.5h2.7v7.5
			c0,0.3,0,0.7,0.1,1c0.1,0.3,0.2,0.6,0.4,0.8c0.2,0.2,0.4,0.4,0.8,0.6c0.3,0.2,0.8,0.2,1.3,0.2c1,0,1.6-0.2,2-0.6
			c0.4-0.4,0.5-1.1,0.5-2v-7.5h2.7v7.5C-156.7,373-157.2,374.2-158.1,375z"/>
		<path fill="#FFFFFF" d="M-147.9,363.8c0.5,0,1,0.1,1.5,0.3c0.4,0.2,0.8,0.4,1.1,0.7c0.3,0.3,0.6,0.7,0.7,1.1
			c0.2,0.4,0.2,0.8,0.2,1.3c0,0.7-0.2,1.3-0.5,1.9c-0.3,0.5-0.8,0.9-1.5,1.2v0c0.3,0.1,0.6,0.2,0.8,0.4c0.2,0.2,0.4,0.4,0.5,0.7
			c0.1,0.3,0.2,0.5,0.3,0.8c0.1,0.3,0.1,0.6,0.1,0.9c0,0.2,0,0.4,0,0.7c0,0.3,0,0.5,0.1,0.8c0,0.3,0.1,0.5,0.1,0.8
			c0.1,0.2,0.2,0.5,0.3,0.6h-2.7c-0.1-0.4-0.2-0.8-0.3-1.4c0-0.5-0.1-1-0.2-1.5c-0.1-0.6-0.3-1.1-0.6-1.4c-0.3-0.3-0.8-0.4-1.4-0.4
			h-2.7v4.7h-2.7v-12.1H-147.9z M-148.8,369.3c0.6,0,1.1-0.1,1.4-0.4c0.3-0.3,0.5-0.7,0.5-1.3c0-0.6-0.2-1-0.5-1.3
			c-0.3-0.3-0.8-0.4-1.4-0.4h-2.9v3.4H-148.8z"/>
		<path fill="#FFFFFF" d="M-143.4,366v-2.2h9.9v2.2h-3.6v9.9h-2.7V366H-143.4z"/>
	</g>
	<g>
		<path fill="#FFFFFF" d="M-215,406.5h-17.8v9.8c0,2,0.1,3.4,0.4,4c0.3,0.6,0.9,0.9,1.7,0.9c1,0,1.7-0.4,2.1-1.2
			c0.4-0.8,0.5-2.3,0.5-4.5v-6h13v3.3c0,2.8-0.2,4.9-0.5,6.4c-0.4,1.5-1.2,3.1-2.5,4.8c-1.3,1.7-2.9,3-4.9,3.8
			c-2,0.9-4.5,1.3-7.5,1.3c-2.9,0-5.5-0.4-7.7-1.3c-2.2-0.8-4-2-5.2-3.5c-1.2-1.5-2.1-3.1-2.6-4.8c-0.5-1.8-0.7-4.3-0.7-7.7v-13.2
			c0-4,0.5-7.1,1.6-9.4c1.1-2.3,2.8-4,5.2-5.2c2.4-1.2,5.2-1.8,8.4-1.8c3.9,0,7,0.7,9.6,2.2c2.5,1.5,4.3,3.4,5.3,5.8
			c1,2.4,1.5,5.8,1.5,10.2V406.5z M-228.8,399.2v-3.3c0-2.3-0.1-3.9-0.4-4.5c-0.2-0.7-0.8-1-1.5-1c-1,0-1.5,0.3-1.8,0.9
			c-0.2,0.6-0.3,2.1-0.3,4.7v3.3H-228.8z"/>
		<path fill="#FFFFFF" d="M-182.4,397.6h-12.2v-2.5c0-2.1-0.1-3.4-0.4-4c-0.2-0.6-0.8-0.8-1.8-0.8c-0.8,0-1.4,0.3-1.7,0.8
			c-0.4,0.5-0.6,1.3-0.6,2.3c0,1.4,0.1,2.4,0.3,3.1c0.2,0.6,0.8,1.4,1.7,2.1c1,0.8,2.9,1.9,5.9,3.4c4,2,6.6,3.8,7.9,5.5
			c1.2,1.7,1.9,4.2,1.9,7.5c0,3.7-0.5,6.5-1.4,8.3c-1,1.9-2.5,3.3-4.8,4.3c-2.2,1-4.9,1.5-8.1,1.5c-3.5,0-6.5-0.5-9-1.6
			c-2.5-1.1-4.2-2.6-5.1-4.4c-0.9-1.9-1.4-4.7-1.4-8.4v-2.2h12.2v2.9c0,2.4,0.2,4,0.5,4.7c0.3,0.7,0.9,1.1,1.8,1.1
			c1,0,1.7-0.2,2-0.7c0.4-0.5,0.6-1.5,0.6-3.1c0-2.2-0.2-3.5-0.7-4.1c-0.5-0.5-3.2-2.2-8-4.8c-4-2.3-6.5-4.3-7.4-6.2
			c-0.9-1.9-1.3-4-1.3-6.6c0-3.6,0.5-6.3,1.4-8c1-1.7,2.6-3,4.9-4c2.3-0.9,4.9-1.4,8-1.4c3,0,5.5,0.4,7.6,1.1c2.1,0.8,3.7,1.8,4.8,3
			c1.1,1.3,1.8,2.4,2,3.5c0.2,1.1,0.4,2.7,0.4,5V397.6z"/>
		<path fill="#FFFFFF" d="M-163.1,379.5v4.8h3.7v7.2h-3.7v24.2c0,3,0.2,4.6,0.5,5c0.3,0.3,1.6,0.5,3.8,0.5v7.3h-5.6
			c-3.1,0-5.4-0.1-6.7-0.4c-1.3-0.3-2.5-0.9-3.5-1.8c-1-0.9-1.7-2-1.9-3.2c-0.3-1.2-0.4-4.1-0.4-8.6v-23h-3v-7.2h3v-4.8H-163.1z"/>
		<path fill="#FFFFFF" d="M-125.2,406.5H-143v9.8c0,2,0.1,3.4,0.4,4c0.3,0.6,0.9,0.9,1.7,0.9c1,0,1.7-0.4,2.1-1.2
			c0.4-0.8,0.5-2.3,0.5-4.5v-6h13v3.3c0,2.8-0.2,4.9-0.5,6.4c-0.4,1.5-1.2,3.1-2.5,4.8c-1.3,1.7-2.9,3-4.9,3.8
			c-2,0.9-4.5,1.3-7.5,1.3c-2.9,0-5.5-0.4-7.7-1.3c-2.2-0.8-4-2-5.2-3.5c-1.2-1.5-2.1-3.1-2.6-4.8c-0.5-1.8-0.7-4.3-0.7-7.7v-13.2
			c0-4,0.5-7.1,1.6-9.4c1.1-2.3,2.8-4,5.2-5.2c2.4-1.2,5.2-1.8,8.4-1.8c3.9,0,7,0.7,9.6,2.2c2.5,1.5,4.3,3.4,5.3,5.8
			c1,2.4,1.5,5.8,1.5,10.2V406.5z M-139,399.2v-3.3c0-2.3-0.1-3.9-0.4-4.5c-0.3-0.7-0.8-1-1.5-1c-1,0-1.5,0.3-1.8,0.9
			c-0.2,0.6-0.3,2.1-0.3,4.7v3.3H-139z"/>
		<path fill="#FFFFFF" d="M-107,383.1l-0.5,5.9c2-4.3,4.9-6.5,8.7-6.8v15.9c-2.5,0-4.4,0.3-5.5,1c-1.2,0.7-1.9,1.6-2.2,2.8
			c-0.3,1.2-0.4,4-0.4,8.4v17.9h-13.8v-45.2H-107z"/>
		<path fill="#FFFFFF" d="M-67.7,397.6h-12.2v-2.5c0-2.1-0.1-3.4-0.4-4c-0.2-0.6-0.8-0.8-1.8-0.8c-0.8,0-1.4,0.3-1.7,0.8
			c-0.4,0.5-0.6,1.3-0.6,2.3c0,1.4,0.1,2.4,0.3,3.1c0.2,0.6,0.8,1.4,1.7,2.1c1,0.8,2.9,1.9,5.9,3.4c4,2,6.6,3.8,7.9,5.5
			c1.2,1.7,1.9,4.2,1.9,7.5c0,3.7-0.5,6.5-1.4,8.3c-1,1.9-2.5,3.3-4.8,4.3c-2.2,1-4.9,1.5-8.1,1.5c-3.5,0-6.5-0.5-9-1.6
			c-2.5-1.1-4.2-2.6-5.1-4.4c-0.9-1.9-1.4-4.7-1.4-8.4v-2.2h12.2v2.9c0,2.4,0.2,4,0.5,4.7c0.3,0.7,0.9,1.1,1.8,1.1
			c1,0,1.7-0.2,2-0.7c0.4-0.5,0.6-1.5,0.6-3.1c0-2.2-0.3-3.5-0.8-4.1c-0.5-0.5-3.2-2.2-8-4.8c-4-2.3-6.5-4.3-7.4-6.2
			c-0.9-1.9-1.3-4-1.3-6.6c0-3.6,0.5-6.3,1.4-8c1-1.7,2.6-3,4.9-4c2.3-0.9,4.9-1.4,8-1.4c3,0,5.5,0.4,7.6,1.1c2.1,0.8,3.7,1.8,4.8,3
			c1.1,1.3,1.8,2.4,2,3.5c0.2,1.1,0.4,2.7,0.4,5V397.6z"/>
	</g>
	<path fill="#FFFFFF" d="M-251.1,383.2c-0.2-0.7-3.3-1.8-7.1-1.8c-3.8,0-6.9,1.2-7.1,1.8l0,37c0,4.2-0.1,6.4-0.3,6.8
		c-0.2,0.4-1.1,0.5-2.8,0.5v7.2h5.3c2.9,0,5.1-0.3,6.6-0.8c1.5-0.5,2.6-1.4,3.5-2.5c0.9-1.1,1.4-2.4,1.6-3.9
		c0.2-1.5,0.3-4.3,0.3-8.5L-251.1,383.2z"/>
	<g>
		<path fill="#FFFFFF" d="M-258.3,385.3c-1.5,0-9.2-0.1-9.2-2.3c0-0.8,0.8-1.2,1.3-1.5l0.1-0.1c0.6-0.3,1.2-0.6,1.9-0.8
			c1.3-0.4,2.8-0.7,4.2-0.8c1.3-0.1,2.9,0,4.2,0.1c1.2,0.1,2.4,0.3,3.5,0.7c0.6,0.2,1.1,0.4,1.7,0.7c0.5,0.2,1.3,0.6,1.3,1.4
			C-249.2,384-252.4,385.3-258.3,385.3z M-258.6,380.7c-0.4,0-0.8,0-1.2,0c-1.4,0.1-2.8,0.4-4.1,0.8c-0.7,0.2-1.2,0.5-1.8,0.8
			l-0.1,0.1c-0.3,0.2-0.8,0.5-0.8,0.7c0,0.4,2.5,1.4,8.3,1.4c5.3,0,8.2-1.2,8.2-1.7c0-0.3-0.3-0.4-0.7-0.6c-0.5-0.2-1.1-0.4-1.6-0.6
			c-1.1-0.3-2.2-0.6-3.3-0.7C-256.7,380.7-257.6,380.7-258.6,380.7z"/>
		<path fill="#FFFFFF" d="M-224.9,354.7c0.2,0,0.5,0.1,0.5,0.4c0.7,0.2,2-0.3,2.2-0.5c-0.2-0.3-1.2-1.3-1.9-1.4
			c-0.1,0.2-0.4,0.3-0.6,0.1c-0.2-0.1-0.3-0.4-0.1-0.7c0.1-0.2,0.4-0.3,0.6-0.1c0.1,0,0.1,0.1,0.2,0.2c0.3,0.1,1,0.4,1.9,1.4
			c0-0.1,0-0.2,0-0.3c-0.2-1.3-1.5-2.2-2.7-2c-0.6,0.1-1.2,0.5-1.5,1c-0.2-0.1-0.4-0.3-0.7-0.4c-2-1.1-4.5-1.8-6.8-1.7
			c-2.7,0.1-5.4,0.9-7.8,2.3c-0.7,0.4-1.4,0.9-2,1.4c-0.6,0.5-1.2,1-1.7,1.5c-0.6,0.7-0.7,1.4-0.6,1.4c0.1,0,0.1,0,0.3-0.2
			c0.2-0.2,0.3-0.3,0.5-0.5c3.9-3.4,9-5.2,14.2-4.4c0.9,0.2,1.9,0.4,2.7,0.7c0.3,0.1,1.2,0.5,1.6,0.7c-1.3,0-7.2-0.1-11.2,1.9
			c0,0,0,0,0,0c0,0,0,0,0,0c0,0-0.1,0-0.1,0c-0.2,0.1-0.3,0.1-0.5,0.2c-1.9,0.9-3.6,2.2-5.1,4c-2.8,3.3-3.5,7-4.9,10.9
			c-0.7,2.2-2.3,4.5-3.9,6.3c-0.2,0.3-0.5,0.5-0.7,0.6c-0.1,0-0.2,0-0.2,0c-1.2-0.3-2.4-0.4-3.5-0.5c0.1-2,0.5-3.9,1.2-5.7l1.5-3.5
			c1-2,2.1-3.9,3.4-5.7l1.1-1.5c-0.4-2-1.1-3.9-2-5.7c-1.2-2.4-2.3-4.9-3.1-7.5c-0.8-2.7-0.8-5.4-0.4-8.2c0-0.1,0.1-0.3,0.1-0.6
			c1.1,0.1,2.1-0.4,2.5-1.4c0.3-0.8,0.1-1.6-0.3-2.2c-0.2,1.3-0.6,1.9-0.8,2.1c0,0.1,0,0.2,0,0.2c-0.1,0.2-0.4,0.3-0.6,0.2
			c-0.2-0.1-0.4-0.4-0.3-0.6c0.1-0.2,0.4-0.3,0.6-0.2c0.6-0.5,0.7-1.8,0.8-2.1c-0.3,0.1-1.7,0.3-2.2,0.9c0.1,0.2,0,0.5-0.2,0.6
			c-0.2,0.1-0.5,0-0.6-0.2c-0.1-0.2,0-0.5,0.2-0.6c0.1,0,0.2,0,0.3,0c0.2-0.2,0.8-0.6,2.2-0.9c-0.1-0.1-0.2-0.1-0.3-0.1
			c-1.3-0.5-2.7,0.1-3.2,1.2c-0.2,0.6-0.2,1.2,0.1,1.8c-0.8,0.5-1.5,1-1.6,1.1c-1.9,1.3-3.2,3.1-4.1,5.2c-1.9,4.7-1.6,10.5-0.8,15.4
			c0,0.3,0.2,0.7,0.5,0.7c0.2,0-0.2-8.9,1-12.7c0.5-1.5,1-3,1.8-4.3c0.4-0.7,0.9-1.4,1.4-2c0.3-0.3,0.5-0.5,0.8-0.8
			c0.2-0.2,0.4-0.3,0.5-0.5c0.1-0.1,0.4-0.3,0.5-0.4c-1.1,3.2-1.8,6.6-1.7,10c0.1,2.8,0.5,5.5,1,8.2c0,0.1,0,0.1,0,0.2
			c0.2,1.1,0.4,2.2,0.7,3.3c1.3,5.5,0.4,10.5,0.1,11.9c-0.2-1.9-1.6-7.6-9.6-10.3c-1.1-0.4-2.2-0.9-3.3-1.3
			c-0.3-0.1-0.5-0.2-0.8-0.3c-4.5-2.2-6.6-4.7-7.4-5.9c0,0,0,0,0,0c0.7-0.6,1-1.5,0.8-2.4c-0.2-0.8-0.8-1.3-1.6-1.6
			c0.6,1.2,0.7,1.9,0.6,2.2c0.1,0.1,0.1,0.1,0.1,0.2c0.1,0.2-0.1,0.5-0.3,0.6s-0.5-0.1-0.6-0.3c-0.1-0.2,0.1-0.5,0.3-0.6
			c0.1-0.7-0.5-1.9-0.7-2.1c-0.2,0.3-1.2,1.3-1.2,2c0.2,0.1,0.3,0.4,0.2,0.6c-0.1,0.2-0.4,0.3-0.7,0.2c-0.2-0.1-0.3-0.4-0.2-0.6
			c0-0.1,0.1-0.1,0.2-0.2c0.1-0.3,0.3-1,1.2-2c-0.1,0-0.2,0-0.3,0.1c-1.3,0.4-2.1,1.7-1.8,2.9c0.2,0.7,0.7,1.2,1.3,1.5
			c-0.2,1-0.6,4.2,1,9.8c2.1,6.9,9.6,10,9.6,10s2.4,1.8-4.4-5.3c-5-5.2-5.5-10.8-5.3-13.4c0-0.3,0.2-0.8,0.2-0.9
			c1.4,4.4,4.9,7.2,8.5,10.1c3.7,3,6.7,6.4,7.7,11.1c0.1,0.3,0.1,0.6,0.1,0.9c-2.2,0.5-3.6,1.2-4,1.4c-0.1,0-0.2,0.1-0.2,0.1
			c0,0.2,0.1,0.4,0.1,0.6v0.2c-0.3,0-0.5,0.2-0.5,0.5c0,0.3,0.2,0.5,0.5,0.5v0.9c0,0,2.1-2.3,9.1-2.4c6.7-0.1,9,2.2,9,2.2
			s0-0.3,0-0.7c0.3,0,0.5-0.2,0.5-0.5c0-0.3-0.2-0.5-0.5-0.5c0-0.4,0-0.7,0-0.8c0-0.2,0-0.3,0.1-0.4c0.1-0.1,3.1-1.8,4.2-2.7
			c1.7-1.4,2.7-3.3,3.4-5.4c0.8-2.3,1.5-4.7,2.1-7.1c0.6-2.3,2-4.2,4-5.6c2-1.3,4.3-2.1,6.7-2.4c0.2,0,2.2-0.4,2.3-0.2
			c0.5,0.9,1.5,1.5,2.5,1.3c0.8-0.1,1.4-0.7,1.7-1.4c-1.2,0.5-2,0.5-2.3,0.4c-0.1,0.1-0.1,0.1-0.2,0.1c-0.2,0-0.5-0.1-0.5-0.4
			C-225.3,355-225.2,354.7-224.9,354.7z M-270.1,366.1l0.2,0.1l0.1,0.1C-269.9,366.3-270,366.2-270.1,366.1z M-267.4,368.6
			L-267.4,368.6L-267.4,368.6C-267.4,368.6-267.4,368.6-267.4,368.6z M-265.3,379.8c-0.3,0-0.5-0.2-0.5-0.5s0.2-0.5,0.5-0.5
			s0.5,0.2,0.5,0.5S-265.1,379.8-265.3,379.8z M-262,378.9c-0.3,0-0.5-0.2-0.5-0.5s0.2-0.5,0.5-0.5c0.3,0,0.5,0.2,0.5,0.5
			S-261.8,378.9-262,378.9z M-258.1,378.5c-0.3,0-0.5-0.2-0.5-0.5s0.2-0.5,0.5-0.5c0.3,0,0.5,0.2,0.5,0.5S-257.9,378.5-258.1,378.5z
			 M-254.5,378.8c-0.3,0-0.5-0.2-0.5-0.5c0-0.3,0.2-0.5,0.5-0.5s0.5,0.2,0.5,0.5C-254,378.6-254.2,378.8-254.5,378.8z M-251.2,379.7
			c-0.3,0-0.5-0.2-0.5-0.5c0-0.3,0.2-0.5,0.5-0.5s0.5,0.2,0.5,0.5C-250.8,379.5-251,379.7-251.2,379.7z"/>
	</g>
</g>
</svg>
