<?xml version="1.0" encoding="utf-8"?>
<!-- Generator: Adobe Illustrator 16.0.4, SVG Export Plug-In . SVG Version: 6.00 Build 0)  -->
<!DOCTYPE svg PUBLIC "-//W3C//DTD SVG 1.1//EN" "http://www.w3.org/Graphics/SVG/1.1/DTD/svg11.dtd">
<svg version="1.1" id="Layer_1" xmlns="http://www.w3.org/2000/svg" xmlns:xlink="http://www.w3.org/1999/xlink" x="0px" y="0px"
	 width="232px" height="88px" viewBox="0 0 232 88" enable-background="new 0 0 232 88" xml:space="preserve">
<g>
	<g>
		<path fill="#FFFFFF" d="M31.854,25.877v35.777c0,4.203-0.085,7.049-0.256,8.535c-0.17,1.488-0.693,2.795-1.567,3.92
			c-0.875,1.123-2.044,1.959-3.509,2.504c-1.465,0.545-3.663,0.818-6.594,0.818h-5.315v-7.225c1.636,0,2.556-0.182,2.76-0.545
			c0.204-0.363,0.307-2.635,0.307-6.814v-36.97H31.854z"/>
		<path fill="#FFFFFF" d="M67.972,49.285H50.151v9.779c0,2.045,0.147,3.363,0.443,3.953c0.295,0.592,0.863,0.887,1.704,0.887
			c1.044,0,1.743-0.393,2.095-1.176s0.528-2.301,0.528-4.549v-5.963h13.05v3.338c0,2.795-0.176,4.941-0.528,6.441
			c-0.353,1.498-1.175,3.1-2.47,4.805c-1.295,1.703-2.936,2.98-4.924,3.832s-4.48,1.277-7.479,1.277c-2.908,0-5.475-0.42-7.701-1.26
			c-2.227-0.84-3.958-1.994-5.196-3.459c-1.238-1.465-2.096-3.078-2.573-4.838s-0.715-4.322-0.715-7.684V41.483
			c0-3.951,0.534-7.07,1.602-9.354c1.067-2.281,2.816-4.031,5.247-5.246s5.225-1.824,8.382-1.824c3.861,0,7.047,0.732,9.558,2.199
			c2.51,1.465,4.271,3.406,5.282,5.826c1.01,2.42,1.516,5.82,1.516,10.205V49.285z M54.172,41.926v-3.305
			c0-2.34-0.125-3.852-0.375-4.531c-0.25-0.682-0.761-1.023-1.533-1.023c-0.954,0-1.545,0.289-1.772,0.869s-0.341,2.141-0.341,4.686
			v3.305H54.172z"/>
		<path fill="#FFFFFF" d="M100.582,40.325H88.382v-2.453c0-2.09-0.119-3.412-0.358-3.969c-0.238-0.557-0.834-0.836-1.789-0.836
			c-0.772,0-1.352,0.256-1.738,0.768c-0.387,0.51-0.579,1.277-0.579,2.299c0,1.387,0.096,2.402,0.29,3.051
			c0.192,0.646,0.772,1.357,1.738,2.129c0.965,0.773,2.947,1.896,5.946,3.373c3.998,1.955,6.621,3.794,7.871,5.519
			c1.248,1.727,1.873,4.238,1.873,7.531c0,3.68-0.477,6.457-1.43,8.33c-0.955,1.875-2.551,3.318-4.787,4.328
			c-2.238,1.01-4.936,1.516-8.093,1.516c-3.499,0-6.491-0.545-8.979-1.635s-4.197-2.566-5.128-4.43
			c-0.932-1.861-1.397-4.68-1.397-8.449v-2.182h12.198v2.861c0,2.432,0.153,4.01,0.46,4.736c0.307,0.729,0.914,1.092,1.823,1.092
			c0.977,0,1.658-0.244,2.044-0.732s0.58-1.518,0.58-3.084c0-2.158-0.25-3.51-0.75-4.055c-0.522-0.545-3.191-2.158-8.007-4.84
			c-4.043-2.271-6.508-4.332-7.394-6.183c-0.886-1.852-1.329-4.049-1.329-6.594c0-3.611,0.477-6.275,1.431-7.99
			s2.572-3.037,4.855-3.969c2.283-0.932,4.935-1.398,7.956-1.398c2.999,0,5.548,0.381,7.649,1.143
			c2.102,0.762,3.715,1.766,4.84,3.016c1.123,1.25,1.805,2.408,2.043,3.475c0.24,1.068,0.359,2.738,0.359,5.01V40.325z"/>
		<path fill="#FFFFFF" d="M119.833,22.2v4.768h3.714v7.156h-3.714v24.193c0,2.975,0.153,4.633,0.46,4.975
			c0.307,0.34,1.584,0.51,3.833,0.51v7.293h-5.554c-3.135,0-5.372-0.131-6.713-0.393c-1.34-0.26-2.521-0.863-3.543-1.807
			c-1.022-0.941-1.659-2.021-1.908-3.236c-0.251-1.215-0.375-4.072-0.375-8.568V34.124h-2.965v-7.156h2.965V22.2H119.833z"/>
		<path fill="#FFFFFF" d="M157.756,49.285h-17.82v9.779c0,2.045,0.147,3.363,0.442,3.953c0.295,0.592,0.863,0.887,1.704,0.887
			c1.045,0,1.743-0.393,2.096-1.176c0.352-0.783,0.528-2.301,0.528-4.549v-5.963h13.05v3.338c0,2.795-0.176,4.941-0.528,6.441
			c-0.353,1.498-1.176,3.1-2.47,4.805c-1.295,1.703-2.937,2.98-4.924,3.832c-1.988,0.852-4.481,1.277-7.479,1.277
			c-2.908,0-5.475-0.42-7.701-1.26c-2.226-0.84-3.958-1.994-5.195-3.459c-1.239-1.465-2.096-3.078-2.573-4.838
			c-0.477-1.76-0.716-4.322-0.716-7.684V41.483c0-3.951,0.534-7.07,1.602-9.354c1.067-2.281,2.816-4.031,5.248-5.246
			c2.43-1.215,5.225-1.824,8.382-1.824c3.861,0,7.048,0.732,9.558,2.199c2.51,1.465,4.271,3.406,5.281,5.826
			s1.517,5.82,1.517,10.205V49.285z M143.957,41.926v-3.305c0-2.34-0.125-3.852-0.375-4.531c-0.25-0.682-0.762-1.023-1.533-1.023
			c-0.954,0-1.545,0.289-1.771,0.869c-0.228,0.58-0.341,2.141-0.341,4.686v3.305H143.957z"/>
		<path fill="#FFFFFF" d="M176.02,25.877l-0.545,5.945c1.999-4.258,4.896-6.512,8.688-6.764v15.914c-2.521,0-4.373,0.34-5.554,1.021
			c-1.182,0.682-1.908,1.631-2.181,2.846c-0.272,1.214-0.409,4.015-0.409,8.398v17.855h-13.766V25.877H176.02z"/>
		<path fill="#FFFFFF" d="M215.341,40.325h-12.198v-2.453c0-2.09-0.12-3.412-0.358-3.969s-0.835-0.836-1.789-0.836
			c-0.772,0-1.352,0.256-1.737,0.768c-0.387,0.51-0.579,1.277-0.579,2.299c0,1.387,0.096,2.402,0.289,3.051
			c0.193,0.646,0.772,1.357,1.738,2.129c0.965,0.773,2.947,1.896,5.945,3.373c3.998,1.955,6.622,3.794,7.871,5.519
			c1.249,1.727,1.874,4.238,1.874,7.531c0,3.68-0.477,6.457-1.431,8.33c-0.954,1.875-2.55,3.318-4.787,4.328
			c-2.238,1.01-4.936,1.516-8.093,1.516c-3.498,0-6.491-0.545-8.979-1.635s-4.197-2.566-5.128-4.43
			c-0.932-1.861-1.397-4.68-1.397-8.449v-2.182h12.198v2.861c0,2.432,0.153,4.01,0.46,4.736c0.307,0.729,0.915,1.092,1.823,1.092
			c0.977,0,1.658-0.244,2.045-0.732c0.386-0.488,0.579-1.518,0.579-3.084c0-2.158-0.25-3.51-0.75-4.055
			c-0.522-0.545-3.191-2.158-8.007-4.84c-4.044-2.271-6.509-4.332-7.395-6.183c-0.886-1.852-1.329-4.049-1.329-6.594
			c0-3.611,0.478-6.275,1.432-7.99s2.572-3.037,4.855-3.969s4.935-1.398,7.956-1.398c2.999,0,5.548,0.381,7.649,1.143
			s3.714,1.766,4.839,3.016c1.124,1.25,1.806,2.408,2.044,3.475c0.239,1.068,0.358,2.738,0.358,5.01V40.325z"/>
	</g>
	<g>
		<path fill="#FFFFFF" d="M11.731,2.776c-0.243-0.699,0.127-1.459,0.824-1.701c0.699-0.242,1.461,0.125,1.704,0.822
			c0.243,0.699-0.126,1.463-0.826,1.705C12.736,3.844,11.974,3.475,11.731,2.776"/>
		<path fill="#FFFFFF" d="M33.299,8.127c-1.006-2.646-3.353-1.654-5.157-0.564c-1.802,1.088-3.589,5.084-3.589,5.084
			c-0.4-1.912-1.124-3.867-2.093-4.785c-0.97-0.92-1.794-1.01-3.641-0.102c-1.845,0.904-2.151,5.797-2.151,5.797
			c-4.277-4.312-6.461-3.049-6.461-3.049c-3.736,1.232-1.483,6.514-1.483,6.514c-4.972-2.064-7.362-1.016-8.413,0.785
			c-1.05,1.799,0.764,3.594,2.439,4.861c1.677,1.271,5.885,1.557,5.885,1.557c-1.849,1.293-1.896,2.697-1.896,2.697l0.265,0.762
			c0,0-0.836,0.057-0.619,0.746c0.217,0.689,1.007,0.369,1.007,0.369l0.355,1.021c0,0,1.079-4.326,11.716-8.023
			C30.1,18.102,33.79,20.471,33.79,20.471l-0.26-0.746c0,0,0.626-0.189,0.407-0.816c-0.218-0.631-0.833-0.307-0.833-0.307
			c-0.67-1.93-3.356-1.854-3.356-1.854s1.574-1.625,2.219-2.559C32.615,13.26,34.307,10.776,33.299,8.127 M9.357,23.514
			c-2.97-0.42-3.622-0.766-4.936-1.312c-1.315-0.547-3.466-2.439-2.978-3.916c0.487-1.48,2.074-1.744,3.767-1.637
			c1.695,0.105,4.183,1.553,4.183,1.553c0.047,0.844,2.911,3.49,2.911,3.49C11.409,21.94,9.357,23.514,9.357,23.514 M17.03,16.51
			c0.082,0.707,0.724,2.674,0.724,2.674c-0.762,0.162-3.962,1.725-3.962,1.725c-1.028-1.607-2.847-2.756-2.847-2.756
			s-0.552-0.729-1.253-2.508c-0.7-1.783-0.628-3.752,0.751-4.375s2.99,0.658,3.776,1.451C15.006,13.51,16.947,15.801,17.03,16.51
			 M19.062,18.709c0,0-1.561-4.553-0.703-7.795c0.856-3.246,2.911-2.691,3.977-1.918c1.067,0.775,1.794,4.635,1.794,4.635
			c-0.646,1.023-0.537,3.871-0.537,3.871C23.274,17.288,19.062,18.709,19.062,18.709 M29.099,16.758
			c-0.015,0.012-0.029,0.021-0.044,0.033c0,0-2.896-0.035-4.114,0.406c0,0,0.196-2.381-0.182-3.291c0,0,1.487-3.137,3.374-4.713
			c1.889-1.574,3.565-1.811,4.208-0.848c0.641,0.963,0.729,1.832,0.435,2.855C32.482,12.217,30.979,15.325,29.099,16.758"/>
		<path fill="#FFFFFF" d="M27.3,1.858c-1.32-0.834-2.392-1.682-6.338,0.705c0,0-3.179,2.146-4.333,2.166
			c-1.154,0.018-2.637-0.781-2.637-0.781s1.356,2.299,1.215,2.906c0,0-0.046,0.617-0.379,0.838
			c-0.208-0.004-1.621-0.152-1.703-3.443c0,0-0.864,2.109-2.093,2.602c-1.229,0.494-5.045,0.707-6.03,0.949
			c-0.986,0.242-3.353,0.977-3.725,2.859c-0.37,1.883,1.105,3.529,1.358,3.75c0.254,0.221,0.323,0.449,1.893,0.586
			c1.567,0.141,2.525,0.547,2.638,0.619c0.113,0.07-1.292-2.387,0.048-4.207c1.34-1.822,3.055-2.594,4.51-2.152
			c1.343,0.41,3.946,2.336,4.34,2.629l0.052,0.08c0,0,0-0.018,0.004-0.035l-0.001-0.002c0.048-0.348,0.479-3.475,1.054-4.15
			c0,0,1.509-2.555,4.567-2.002c3.059,0.555,3.405,3.963,3.416,4.076c0.009,0.115,1.322-2.709,3.201-3.773
			C28.355,6.077,28.619,2.692,27.3,1.858"/>
		<path fill="#FFFFFF" d="M15.301,17.979c0.095,0.273-0.05,0.572-0.324,0.668c-0.274,0.094-0.573-0.051-0.667-0.322
			c-0.096-0.275,0.049-0.574,0.323-0.67C14.906,17.559,15.206,17.706,15.301,17.979"/>
		<path fill="#FFFFFF" d="M10.766,21.502c0.095,0.273-0.05,0.572-0.325,0.668c-0.274,0.096-0.573-0.049-0.668-0.324
			c-0.095-0.273,0.049-0.572,0.324-0.668C10.371,21.083,10.67,21.227,10.766,21.502"/>
		<path fill="#FFFFFF" d="M21.844,15.704c0.095,0.273-0.049,0.572-0.323,0.668c-0.275,0.094-0.574-0.051-0.668-0.322
			c-0.096-0.273,0.049-0.572,0.323-0.668C21.451,15.284,21.749,15.432,21.844,15.704"/>
		<path fill="#FFFFFF" d="M27.602,15.651c0.096,0.275-0.049,0.574-0.323,0.67c-0.274,0.094-0.572-0.051-0.668-0.326
			c-0.095-0.273,0.048-0.572,0.323-0.668C27.208,15.231,27.507,15.377,27.602,15.651"/>
		<path fill="#FFFFFF" d="M21.708,13.147c0.129,0.373-0.066,0.777-0.437,0.904c-0.372,0.131-0.776-0.066-0.905-0.438
			c-0.129-0.371,0.067-0.775,0.438-0.904C21.176,12.581,21.58,12.776,21.708,13.147"/>
		<path fill="#FFFFFF" d="M28.855,13.25c0.128,0.373-0.067,0.777-0.439,0.904c-0.371,0.129-0.775-0.066-0.903-0.438
			c-0.13-0.371,0.066-0.773,0.438-0.902C28.321,12.686,28.726,12.879,28.855,13.25"/>
		<path fill="#FFFFFF" d="M14.101,15.79c0.129,0.373-0.066,0.777-0.437,0.906c-0.37,0.129-0.775-0.068-0.904-0.439
			s0.068-0.775,0.438-0.904C13.568,15.223,13.973,15.42,14.101,15.79"/>
		<path fill="#FFFFFF" d="M8.452,20.555c0.129,0.371-0.067,0.777-0.438,0.906c-0.371,0.127-0.775-0.068-0.905-0.439
			c-0.128-0.371,0.069-0.775,0.438-0.904C7.918,19.987,8.323,20.184,8.452,20.555"/>
		<path fill="#FFFFFF" d="M6.536,18.752c0.17,0.49-0.255,1.084-0.951,1.328c-0.696,0.24-1.401,0.037-1.571-0.451
			c-0.171-0.49,0.257-1.084,0.953-1.326C5.663,18.061,6.365,18.262,6.536,18.752"/>
		<path fill="#FFFFFF" d="M13.151,13.321c0.171,0.492-0.254,1.084-0.951,1.326c-0.696,0.244-1.398,0.043-1.569-0.449
			c-0.17-0.49,0.256-1.084,0.952-1.326C12.279,12.627,12.981,12.833,13.151,13.321"/>
		<path fill="#FFFFFF" d="M22.019,10.241c0.17,0.49-0.255,1.082-0.952,1.326c-0.696,0.242-1.398,0.041-1.569-0.451
			c-0.17-0.49,0.255-1.084,0.952-1.326S21.849,9.75,22.019,10.241"/>
		<path fill="#FFFFFF" d="M31.108,10.227c0.17,0.49-0.254,1.084-0.952,1.326c-0.696,0.24-1.399,0.039-1.569-0.451
			c-0.171-0.492,0.255-1.086,0.952-1.328S30.936,9.735,31.108,10.227"/>
		<path fill="#FFFFFF" d="M31.059,20.391c-1.729-0.246-6.858,0.918-7.511,1.035c-0.654,0.117-4.721,1.1-10.07,3.852
			c-5.348,2.752-5.003,4.605-5.003,4.605c0.488,1.021,3.653,0.834,5.639,0.621c1.987-0.219,5.691-1.264,7.034-1.74
			c1.345-0.479,3.294-1.145,4.91-1.861c1.614-0.715,3.931-2.105,5.021-2.836c1.091-0.73,2.478-2.295,2.277-2.74
			C33.156,20.877,32.789,20.643,31.059,20.391 M30.808,22.938c-0.944,0.867-3.137,2.391-5.454,3.305
			c-2.316,0.918-5.715,2.174-7.846,2.639c-2.131,0.467-4.236,1.01-5.415,0.814c0,0-1.108,0.053-1.572-0.523
			c0,0-0.903-1.076,3.76-3.355c4.664-2.283,6.725-2.822,7.089-2.949c0.364-0.125,4.942-1.287,6.629-1.445
			c1.688-0.156,2.8-0.189,3.149,0.088C31.498,21.784,31.751,22.071,30.808,22.938"/>
	</g>
	<g>
		<path fill="#FFFFFF" d="M36.607,8.781V6.537h9.945v2.244h-3.638v9.894h-2.669V8.781H36.607z"/>
		<path fill="#FFFFFF" d="M50.614,6.537v4.658h4.913V6.537h2.669v12.138h-2.669v-5.235h-4.913v5.235h-2.669V6.537H50.614z"/>
		<path fill="#FFFFFF" d="M69.621,6.537v2.244h-6.409v2.601h5.882v2.074h-5.882v2.975h6.545v2.244h-9.214V6.537H69.621z"/>
		<path fill="#FFFFFF" d="M84.07,9.775c-0.158-0.255-0.357-0.479-0.594-0.671c-0.238-0.193-0.508-0.343-0.809-0.451
			c-0.301-0.107-0.615-0.161-0.943-0.161c-0.602,0-1.111,0.116-1.529,0.349c-0.42,0.232-0.76,0.544-1.021,0.935
			c-0.261,0.392-0.451,0.836-0.569,1.335c-0.119,0.499-0.179,1.014-0.179,1.547c0,0.51,0.06,1.006,0.179,1.487
			c0.119,0.481,0.309,0.915,0.569,1.301c0.261,0.385,0.601,0.694,1.021,0.926c0.418,0.232,0.928,0.349,1.529,0.349
			c0.816,0,1.453-0.249,1.912-0.748c0.459-0.498,0.74-1.155,0.842-1.972h2.584c-0.068,0.76-0.244,1.445-0.527,2.057
			c-0.283,0.612-0.656,1.134-1.121,1.564s-1.01,0.76-1.633,0.986s-1.309,0.34-2.057,0.34c-0.93,0-1.766-0.162-2.507-0.484
			c-0.742-0.323-1.369-0.768-1.878-1.335c-0.51-0.566-0.901-1.232-1.173-1.997c-0.272-0.766-0.408-1.59-0.408-2.474
			c0-0.907,0.136-1.748,0.408-2.524s0.663-1.454,1.173-2.032c0.51-0.577,1.136-1.03,1.878-1.359
			c0.742-0.329,1.578-0.493,2.507-0.493c0.668,0,1.301,0.097,1.896,0.289c0.594,0.192,1.127,0.474,1.598,0.842
			c0.469,0.368,0.857,0.824,1.164,1.368s0.498,1.167,0.578,1.87h-2.584C84.332,10.311,84.228,10.03,84.07,9.775z"/>
		<path fill="#FFFFFF" d="M88.762,10.132c0.272-0.776,0.663-1.454,1.173-2.032c0.511-0.577,1.137-1.03,1.879-1.359
			s1.578-0.493,2.508-0.493c0.94,0,1.779,0.164,2.516,0.493s1.36,0.782,1.87,1.359c0.51,0.578,0.901,1.256,1.173,2.032
			c0.272,0.776,0.408,1.617,0.408,2.524c0,0.884-0.136,1.708-0.408,2.474c-0.271,0.765-0.663,1.431-1.173,1.997
			c-0.51,0.567-1.134,1.012-1.87,1.335c-0.736,0.322-1.575,0.484-2.516,0.484c-0.93,0-1.766-0.162-2.508-0.484
			c-0.742-0.323-1.368-0.768-1.879-1.335c-0.51-0.566-0.9-1.232-1.173-1.997c-0.271-0.766-0.407-1.59-0.407-2.474
			C88.355,11.75,88.491,10.909,88.762,10.132z M91.202,14.144c0.119,0.481,0.309,0.915,0.57,1.301
			c0.26,0.385,0.601,0.694,1.02,0.926c0.419,0.232,0.929,0.349,1.53,0.349c0.601,0,1.11-0.116,1.529-0.349
			c0.42-0.231,0.76-0.541,1.021-0.926c0.261-0.386,0.45-0.819,0.569-1.301s0.179-0.978,0.179-1.487c0-0.533-0.06-1.048-0.179-1.547
			s-0.309-0.943-0.569-1.335c-0.261-0.391-0.601-0.702-1.021-0.935c-0.419-0.232-0.929-0.349-1.529-0.349
			c-0.602,0-1.111,0.116-1.53,0.349s-0.76,0.544-1.02,0.935c-0.262,0.392-0.451,0.836-0.57,1.335s-0.178,1.014-0.178,1.547
			C91.024,13.167,91.083,13.663,91.202,14.144z"/>
		<path fill="#FFFFFF" d="M111.032,17.749c-0.918,0.799-2.188,1.198-3.808,1.198c-1.644,0-2.916-0.396-3.816-1.19
			c-0.901-0.793-1.352-2.017-1.352-3.672V6.537h2.669v7.548c0,0.329,0.028,0.652,0.085,0.969c0.057,0.317,0.176,0.599,0.357,0.842
			c0.181,0.244,0.433,0.442,0.756,0.595c0.323,0.153,0.757,0.229,1.301,0.229c0.952,0,1.609-0.212,1.972-0.637
			c0.363-0.426,0.544-1.091,0.544-1.998V6.537h2.669v7.548C112.409,15.728,111.95,16.949,111.032,17.749z"/>
		<path fill="#FFFFFF" d="M121.25,6.537c0.544,0,1.034,0.088,1.471,0.264s0.811,0.416,1.122,0.723
			c0.312,0.306,0.55,0.66,0.714,1.062s0.247,0.836,0.247,1.3c0,0.714-0.15,1.332-0.451,1.854c-0.3,0.521-0.79,0.918-1.471,1.189
			v0.034c0.329,0.091,0.601,0.229,0.816,0.417c0.215,0.187,0.391,0.407,0.527,0.663c0.136,0.255,0.234,0.535,0.297,0.841
			c0.062,0.307,0.104,0.612,0.128,0.918c0.011,0.193,0.022,0.42,0.034,0.681c0.011,0.261,0.03,0.526,0.06,0.799
			c0.027,0.271,0.073,0.529,0.136,0.773c0.062,0.244,0.155,0.45,0.28,0.62h-2.669c-0.147-0.385-0.238-0.844-0.272-1.377
			c-0.033-0.532-0.085-1.042-0.152-1.53c-0.091-0.634-0.283-1.099-0.578-1.394s-0.776-0.442-1.445-0.442h-2.669v4.743h-2.669V6.537
			H121.25z M120.297,12.028c0.612,0,1.071-0.137,1.377-0.408c0.307-0.272,0.459-0.714,0.459-1.326c0-0.589-0.152-1.017-0.459-1.283
			c-0.306-0.267-0.765-0.399-1.377-0.399h-2.924v3.417H120.297z"/>
		<path fill="#FFFFFF" d="M125.72,8.781V6.537h9.945v2.244h-3.638v9.894h-2.669V8.781H125.72z"/>
	</g>
</g>
<g>
</g>
<g>
</g>
<g>
</g>
<g>
</g>
<g>
</g>
<g>
</g>
<g>
</g>
<g>
</g>
<g>
</g>
<g>
</g>
<g>
</g>
<g>
</g>
<g>
</g>
<g>
</g>
<g>
</g>
</svg>
